<svg xmlns="http://www.w3.org/2000/svg" viewBox="0 0 24 24"><defs><style>.cls-1,.cls-2{fill:#0e1317;}.cls-1{fill-rule:evenodd;}</style></defs><g id="Layer-9" data-name="Layer"><path class="cls-1" d="M1,12A11,11,0,1,1,12,23,11,11,0,0,1,1,12ZM12,3a9,9,0,1,0,9,9A9,9,0,0,0,12,3Z"/><path class="cls-2" d="M12,18a.94.94,0,0,1-1-.86V6.86A.94.94,0,0,1,12,6a.94.94,0,0,1,1,.86V17.14A.94.94,0,0,1,12,18Z"/><path class="cls-2" d="M6,12a.94.94,0,0,1,.86-1H17.14A.94.94,0,0,1,18,12a.94.94,0,0,1-.86,1H6.86A.94.94,0,0,1,6,12Z"/></g></svg>