<svg xmlns="http://www.w3.org/2000/svg" viewBox="0 0 24 24"><defs><style>.cls-1{fill:#0e1317;fill-rule:evenodd;}</style></defs><g id="Vrstva_418" data-name="Vrstva 418"><path class="cls-1" d="M8.37,3.7A1,1,0,0,1,8,5.07a8,8,0,1,0,8,0,1,1,0,1,1,1-1.73,10,10,0,1,1-10,0A1,1,0,0,1,8.37,3.7Z"/><path class="cls-1" d="M8.24,8.36a1,1,0,0,1-1-1V4.12H4a1,1,0,0,1,0-2H7.74a1.5,1.5,0,0,1,1.5,1.5V7.36A1,1,0,0,1,8.24,8.36Z"/><path class="cls-1" d="M20.36,3.12a1,1,0,0,1-1,1H16.12V7.36a1,1,0,1,1-2,0V3.62a1.5,1.5,0,0,1,1.5-1.5h3.74A1,1,0,0,1,20.36,3.12Z"/></g></svg>