<svg xmlns="http://www.w3.org/2000/svg" viewBox="0 0 24 24"><defs><style>.cls-1{fill:#0e1317;fill-rule:evenodd;}</style></defs><g id="Layer-144" data-name="Layer"><g id="Vrstva_287" data-name="Vrstva 287"><path class="cls-1" d="M21.77,21.58A4.82,4.82,0,0,0,19,17.28V12.05a7.17,7.17,0,0,0-6.12-7.21,7,7,0,0,0-7.88,7v5.27a4.8,4.8,0,0,0-3.27,4.52A1.19,1.19,0,0,0,3,22.79H20.58A1.2,1.2,0,0,0,21.77,21.58ZM11,6.89a5,5,0,0,1,6,4.9v5H7V12A5.12,5.12,0,0,1,11,6.89ZM3.89,20.79a2.8,2.8,0,0,1,2.69-2H17a2.81,2.81,0,0,1,2.69,2Z"/><path class="cls-1" d="M13,3.21v-1a1,1,0,0,0-2,0v1a1,1,0,1,0,2,0Z"/><path class="cls-1" d="M4.18,5A1,1,0,0,0,5.6,5a1,1,0,0,0,0-1.41l-.71-.71a1,1,0,0,0-1.42,0,1,1,0,0,0,0,1.41Z"/><path class="cls-1" d="M1.78,9.4l1,.26a1,1,0,0,0,.52-1.93l-1-.26a1,1,0,0,0-1.22.71A1,1,0,0,0,1.78,9.4Z"/><path class="cls-1" d="M21.25,9.73l1-.26a1,1,0,0,0-.52-1.93l-1,.26a1,1,0,0,0,.52,1.93Z"/><path class="cls-1" d="M18.89,5l.71-.71a1,1,0,0,0,0-1.41,1,1,0,0,0-1.42,0l-.71.71a1,1,0,0,0,0,1.41A1,1,0,0,0,18.89,5Z"/></g></g></svg>