<svg xmlns="http://www.w3.org/2000/svg" viewBox="0 0 24 24"><defs><style>.cls-1{fill:#0e1317;fill-rule:evenodd;}</style></defs><g id="Layer-5" data-name="Layer"><path class="cls-1" d="M12,1A11,11,0,1,0,23,12,11,11,0,0,0,12,1Zm0,20a9,9,0,1,1,9-9A9,9,0,0,1,12,21Z"/><path class="cls-1" d="M18.82,8a1,1,0,0,0-1.28-.6L13.78,8.75a1,1,0,0,0-.6,1.28,1,1,0,0,0,1.28.6l3.76-1.37A1,1,0,0,0,18.82,8Z"/><path class="cls-1" d="M10.82,10a1,1,0,0,0-.6-1.28L6.46,7.38a1,1,0,0,0-.68,1.88l3.76,1.37A1,1,0,0,0,10.82,10Z"/><path class="cls-1" d="M16.9,16.62a5.17,5.17,0,0,0-9.8,0l0,.16a1,1,0,0,0,1.9.63L9,17.25a3.16,3.16,0,0,1,6,0l.05.16a1,1,0,0,0,1.9-.63Z"/></g></svg>