<svg xmlns="http://www.w3.org/2000/svg" viewBox="0 0 24 24"><defs><style>.cls-1{fill:#0e1317;fill-rule:evenodd;}</style></defs><g id="Layer-260" data-name="Layer"><path class="cls-1" d="M9,5.75a3,3,0,1,1,3,3A3,3,0,0,1,9,5.75ZM8.54,9.36A10,10,0,0,0,2,18.75v1a1,1,0,0,0,2,0v-1a8,8,0,0,1,8-8A5,5,0,1,0,8.54,9.36ZM12,17.25a4,4,0,1,1,4,4A4,4,0,0,1,12,17.25Zm4-6a6,6,0,1,0,6,6A6,6,0,0,0,16,11.25Zm-1.27,3.29a1,1,0,0,1,1.41,0L18,16.4a1.2,1.2,0,0,1,0,1.7L16.14,20a1,1,0,0,1-1.41,0,1,1,0,0,1,0-1.42L16,17.25,14.73,16A1,1,0,0,1,14.73,14.54Z"/></g></svg>