<svg xmlns="http://www.w3.org/2000/svg" viewBox="0 0 24 24"><defs><style>.cls-1{fill:#0e1317;fill-rule:evenodd;}</style></defs><g id="Layer-119" data-name="Layer"><g id="Vrstva_340" data-name="Vrstva 340"><path class="cls-1" d="M12.88,23A7.18,7.18,0,0,0,19,15.73V7.16a1,1,0,0,0-2,0V16a5,5,0,0,1-6,4.9,5.13,5.13,0,0,1-4-5.09V6a3,3,0,0,1,3.56-2.95A3.1,3.1,0,0,1,13,6.15V14a1,1,0,0,1-2,0V8A1,1,0,0,0,9,8v6A3,3,0,0,0,12.56,17,3.09,3.09,0,0,0,15,13.85V6A5,5,0,0,0,9,1.1,5.13,5.13,0,0,0,5,6.19V16A7,7,0,0,0,12.88,23Z"/></g></g></svg>