<svg xmlns="http://www.w3.org/2000/svg" viewBox="0 0 24 24"><defs><style>.cls-1{fill:#0e1317;fill-rule:evenodd;}</style></defs><g id="Layer-157" data-name="Layer"><g id="Vrstva_263" data-name="Vrstva 263"><path class="cls-1" d="M12,1A11,11,0,1,0,23,12,11,11,0,0,0,12,1ZM10.2,20.82A9,9,0,0,1,6.39,19L12,13.41l.75.75A10.9,10.9,0,0,0,10.2,20.82Zm4-5.24L17.61,19a8.94,8.94,0,0,1-5.41,2A8.91,8.91,0,0,1,14.16,15.58Zm1.42-1.42a8.91,8.91,0,0,1,5.41-2,8.94,8.94,0,0,1-2,5.41Zm-1.42-1.41L13.41,12,19,6.39a9,9,0,0,1,1.79,3.81A10.9,10.9,0,0,0,14.16,12.75ZM8.42,9.84A8.91,8.91,0,0,1,3,11.8,8.94,8.94,0,0,1,5,6.39ZM6.39,5A8.94,8.94,0,0,1,11.8,3a8.91,8.91,0,0,1-2,5.41ZM13.8,3.18A9,9,0,0,1,17.61,5L12,10.59l-.75-.75A10.9,10.9,0,0,0,13.8,3.18ZM3.18,13.8a10.9,10.9,0,0,0,6.66-2.55l.75.75L5,17.61A9,9,0,0,1,3.18,13.8Z"/></g></g></svg>