<svg xmlns="http://www.w3.org/2000/svg" viewBox="0 0 24 24"><g id="ic-mobile-battery"><path d="M16,22H8a3,3,0,0,1-3-3V7A3,3,0,0,1,8,4a2,2,0,0,1,2-2h4a2,2,0,0,1,2,2,3,3,0,0,1,3,3V19A3,3,0,0,1,16,22ZM8,6A1,1,0,0,0,7,7V19a1,1,0,0,0,1,1h8a1,1,0,0,0,1-1V7a1,1,0,0,0-1-1H15a1,1,0,0,1-1-1V4H10V5A1,1,0,0,1,9,6Z"/><path d="M11.42,18.5a.87.87,0,0,1-.44-.11,1,1,0,0,1-.45-1.34l1.28-2.55h-1a1.19,1.19,0,0,1-1-.61,1.22,1.22,0,0,1,0-1.21L12.57,8a1,1,0,0,1,1.37-.35A1,1,0,0,1,14.28,9L12.19,12.5h.91a1.2,1.2,0,0,1,1.07,1.74L12.32,18A1,1,0,0,1,11.42,18.5Zm0-4.79Z"/></g></svg>