<svg xmlns="http://www.w3.org/2000/svg" viewBox="0 0 24 24"><defs><style>.cls-1{fill:#0e1317;fill-rule:evenodd;}</style></defs><g id="Layer-238" data-name="Layer"><path class="cls-1" d="M17,8h-.82L16,5.7a3,3,0,0,0-.87-1.94L13.06,1.65a1.49,1.49,0,0,0-2.12,0L8.83,3.76A3,3,0,0,0,8,5.7L7.82,8H7a1,1,0,0,0,0,2h.7L7,21.41A1.51,1.51,0,0,0,8.53,23h6.94A1.51,1.51,0,0,0,17,21.41L16.3,10H17a1,1,0,0,0,0-2ZM10,5.82a1,1,0,0,1,.29-.65L12,3.41l1.76,1.76a1,1,0,0,1,.29.65L14.17,8H9.83Zm5,15.18H9.06l.65-11h4.58Z"/><path class="cls-1" d="M2.74,6.32A1,1,0,0,0,1.26,7.68L2.58,9.12,1.33,10.26a1,1,0,0,0,1.34,1.48L4.3,10.26a1.49,1.49,0,0,0,.1-2.12Z"/><path class="cls-1" d="M22.74,10.32,21.42,8.88l1.25-1.14a1,1,0,1,0-1.34-1.48L19.7,7.74a1.49,1.49,0,0,0-.1,2.12l1.66,1.82a1,1,0,0,0,1.48-1.36Z"/></g></svg>