<svg xmlns="http://www.w3.org/2000/svg" viewBox="0 0 24 24"><defs><style>.cls-1{fill:#0e1317;fill-rule:evenodd;}</style></defs><g id="Layer-225" data-name="Layer"><path class="cls-1" d="M22,7.43a21.83,21.83,0,0,0-20,0A1.82,1.82,0,0,0,1,9.06V14.4a3,3,0,0,0,3,3v1a1,1,0,0,0,2,0v-1H18v1a1,1,0,0,0,2,0v-1a3,3,0,0,0,3-3V9.06A1.82,1.82,0,0,0,22,7.43ZM21,9.16v1.09a31,31,0,0,0-18,0V9.16A19.83,19.83,0,0,1,21,9.16ZM20,15.4H4a1,1,0,0,1-1-1V12.47a.2.2,0,0,1,.14-.19,29.13,29.13,0,0,1,17.72,0,.2.2,0,0,1,.14.19V14.4A1,1,0,0,1,20,15.4Z"/></g></svg>