<svg xmlns="http://www.w3.org/2000/svg" viewBox="0 0 24 24"><defs><style>.cls-1{fill:#0e1317;}</style></defs><g id="Layer-51" data-name="Layer"><path class="cls-1" d="M22,1H2A1,1,0,0,0,2,3H22a1,1,0,0,0,0-2Z"/><path class="cls-1" d="M22,5H2A1,1,0,0,0,2,7H22a1,1,0,0,0,0-2Z"/><path class="cls-1" d="M22,9H2a1,1,0,0,0,0,2H22a1,1,0,0,0,0-2Z"/><path class="cls-1" d="M22,13H2a1,1,0,0,0,0,2H22a1,1,0,0,0,0-2Z"/><path class="cls-1" d="M22,17H2a1,1,0,0,0,0,2H22a1,1,0,0,0,0-2Z"/><path class="cls-1" d="M16,21H2a1,1,0,0,0,0,2H16a1,1,0,0,0,0-2Z"/></g></svg>