<svg xmlns="http://www.w3.org/2000/svg" viewBox="0 0 24 24"><defs><style>.cls-1{fill:#0e1317;fill-rule:evenodd;}</style></defs><g id="Layer-194" data-name="Layer"><g id="Vrstva_181" data-name="Vrstva 181"><path class="cls-1" d="M18.31,9.63H13.88l5-6a1.2,1.2,0,0,0-.93-2H11.9a1.18,1.18,0,0,0-1,.59L4.66,12.82a1.2,1.2,0,0,0,1,1.81H8.26l-2.93,6A1.2,1.2,0,0,0,7.2,22.07L19.09,11.73A1.19,1.19,0,0,0,18.31,9.63Zm-10,9,2.05-4.21c.39-.8-1.07-1.82-1.07-1.82H7.08l5.28-9h3.88l-5,6a1.2,1.2,0,0,0,.92,2h4.48Z"/></g></g></svg>