<svg xmlns="http://www.w3.org/2000/svg" viewBox="0 0 24 24"><defs><style>.cls-1{fill:#0e1317;}</style></defs><g id="Layer-155" data-name="Layer"><g id="Vrstva_266" data-name="Vrstva 266"><path class="cls-1" d="M19.55,12.42a5.38,5.38,0,0,0-.08-.9,5.71,5.71,0,0,0-3.31-4.35A.16.16,0,0,1,16.05,7V3.88a2.36,2.36,0,0,0,0-.38A3,3,0,0,0,13.15.83c-1,0-2.08,0-3.12,0a2.75,2.75,0,0,0-1.27.29,2.93,2.93,0,0,0-1.69,2.7c0,1.06,0,2.12,0,3.18A.15.15,0,0,1,7,7.16,5.37,5.37,0,0,0,5.26,8.35,5.71,5.71,0,0,0,3.57,12.5v9c0,.11,0,.21,0,.32a1.69,1.69,0,0,0,1.7,1.44H17.83a1.42,1.42,0,0,0,.35,0,1.67,1.67,0,0,0,1.37-1.69ZM9.07,3.69a1,1,0,0,1,1-.87h3a1,1,0,0,1,1,1c0,.33,0,.66,0,1,0,0,0,0,0,0h-5v-.2C9.06,4.31,9,4,9.07,3.69ZM17.55,21.3h-12V12.43A3.79,3.79,0,0,1,8.27,8.8,1,1,0,0,0,9,8a2.43,2.43,0,0,0,0-.47V6.83h5v.82a1.34,1.34,0,0,0,.08.56,1.07,1.07,0,0,0,.67.58,3.75,3.75,0,0,1,2.25,1.78,3.62,3.62,0,0,1,.49,1.81c0,2.94,0,5.88,0,8.82Z"/></g></g></svg>