<svg xmlns="http://www.w3.org/2000/svg" viewBox="0 0 24 24"><defs><style>.cls-1{fill:#0e1317;fill-rule:evenodd;}</style></defs><g id="Layer-147" data-name="Layer"><g id="Vrstva_282" data-name="Vrstva 282"><path class="cls-1" d="M20,1H4A3,3,0,0,0,1,4V20a3,3,0,0,0,3,3H20a3,3,0,0,0,3-3V4A3,3,0,0,0,20,1Zm1,19a1,1,0,0,1-1,1H4a1,1,0,0,1-1-1V4A1,1,0,0,1,4,3h7.07a1,1,0,0,0-.07.34v4a1,1,0,0,0,2,0v-4A1,1,0,0,0,12.93,3H20a1,1,0,0,1,1,1Z"/><path class="cls-1" d="M13.94,16h2a1,1,0,0,0,0-2h-2a1,1,0,1,0,0,2Z"/><path class="cls-1" d="M17.94,17h-4a1,1,0,1,0,0,2h4a1,1,0,0,0,0-2Z"/></g></g></svg>