<svg xmlns="http://www.w3.org/2000/svg" viewBox="0 0 24 24"><defs><style>.cls-1{fill:#0e1317;fill-rule:evenodd;}</style></defs><g id="Layer-245" data-name="Layer"><path class="cls-1" d="M22,14H21V6.39a1.09,1.09,0,0,0-2.07-.47,7.65,7.65,0,0,1-13.68.31l-.2-.38a1.09,1.09,0,0,0-2,.51V14H2a1,1,0,0,0,0,2H3v2a1,1,0,0,0,2,0V16H19v2a1,1,0,0,0,2,0V16h1a1,1,0,0,0,0-2ZM11,14H9V11.83a9.75,9.75,0,0,0,2,.42Zm2-1.75a9.13,9.13,0,0,0,2-.42V14H13ZM5,9.3a9.4,9.4,0,0,0,2,1.62A.24.24,0,0,0,7,11v3H5ZM17,14V11s0,0,0-.07a9.51,9.51,0,0,0,2-1.59V14Z"/></g></svg>