<svg xmlns="http://www.w3.org/2000/svg" viewBox="0 0 24 24"><defs><style>.cls-1{fill:#0e1317;}</style></defs><g id="Layer-77" data-name="Layer"><g id="Vrstva_150" data-name="Vrstva 150"><path class="cls-1" d="M20,1H4A3,3,0,0,0,1,4V20a3,3,0,0,0,3,3H20a3,3,0,0,0,3-3V4A3,3,0,0,0,20,1ZM4,3H20a1,1,0,0,1,1,1V7H3V4A1,1,0,0,1,4,3ZM20,21H4a1,1,0,0,1-1-1V9H21V20A1,1,0,0,1,20,21Z"/><rect class="cls-1" x="4" y="4" width="2" height="2" rx="0.2"/><rect class="cls-1" x="7" y="4" width="2" height="2" rx="0.2"/><rect class="cls-1" x="10" y="4" width="2" height="2" rx="0.2"/></g></g></svg>