<svg xmlns="http://www.w3.org/2000/svg" viewBox="0 0 24 24"><defs><style>.cls-1{fill:#0e1317;fill-rule:evenodd;}</style></defs><g id="Layer-239" data-name="Layer"><path class="cls-1" d="M19,13h-.08a6.42,6.42,0,0,0,0-2H19a3,3,0,1,0-2.61-4.45,6.8,6.8,0,0,0-1.81-1A2.94,2.94,0,0,0,15,4,3,3,0,0,0,9,4a2.94,2.94,0,0,0,.42,1.5,6.8,6.8,0,0,0-1.81,1A3,3,0,1,0,5,11h.08a6.42,6.42,0,0,0,0,2H5a3,3,0,1,0,2.61,4.45,6.78,6.78,0,0,0,.78.54L7.06,21.66a1,1,0,1,0,1.88.68l1.3-3.57a6.85,6.85,0,0,0,3.52,0l1.3,3.57a1,1,0,0,0,1.88-.68L15.61,18a6.78,6.78,0,0,0,.78-.54A3,3,0,1,0,19,13Zm0-6a1,1,0,1,1-1,1A1,1,0,0,1,19,7ZM11,4a1,1,0,1,1,1,1A1,1,0,0,1,11,4ZM4,8A1,1,0,1,1,5,9,1,1,0,0,1,4,8Zm1,9a1,1,0,1,1,1-1A1,1,0,0,1,5,17Zm7,0a5.31,5.31,0,0,1-1.07-.12L12,13.93l1.07,2.95A5.31,5.31,0,0,1,12,17ZM13.41,12a1.5,1.5,0,0,0-2.82,0L9.1,16.06a5,5,0,1,1,5.8,0ZM19,17a1,1,0,1,1,1-1A1,1,0,0,1,19,17Z"/></g></svg>