<svg xmlns="http://www.w3.org/2000/svg" viewBox="0 0 24 24"><defs><style>.cls-1,.cls-2{fill:#0e1317;}.cls-1{fill-rule:evenodd;}</style></defs><g id="Layer-186" data-name="Layer"><g id="Vrstva_197" data-name="Vrstva 197"><path class="cls-1" d="M5,22H19a3,3,0,0,0,3-3V13a3,3,0,0,0-3-3H17V9h2a3,3,0,0,0,3-3V5a3,3,0,0,0-3-3H5A3,3,0,0,0,2,5V6A3,3,0,0,0,5,9H7v1H5a3,3,0,0,0-3,3v6A3,3,0,0,0,5,22ZM5,7A1,1,0,0,1,4,6V5A1,1,0,0,1,5,4H19a1,1,0,0,1,1,1V6a1,1,0,0,1-1,1ZM15,9v1H9V9ZM4,13a1,1,0,0,1,1-1H19a1,1,0,0,1,1,1v6a1,1,0,0,1-1,1H5a1,1,0,0,1-1-1Z"/><circle class="cls-2" cx="6" cy="14" r="1"/><circle class="cls-2" cx="10" cy="14" r="1"/><circle class="cls-2" cx="14" cy="14" r="1"/><circle class="cls-2" cx="18" cy="14" r="1"/><circle class="cls-2" cx="6" cy="18" r="1"/><circle class="cls-2" cx="10" cy="18" r="1"/><circle class="cls-2" cx="14" cy="18" r="1"/><circle class="cls-2" cx="18" cy="18" r="1"/></g></g></svg>