<svg xmlns="http://www.w3.org/2000/svg" viewBox="0 0 24 24"><defs><style>.cls-1{fill:#0e1317;fill-rule:evenodd;}</style></defs><g id="Layer-240" data-name="Layer"><path class="cls-1" d="M23,3.5A1.5,1.5,0,0,0,21.5,2h-3A1.5,1.5,0,0,0,17,3.5V6H15V3.5A1.5,1.5,0,0,0,13.5,2h-3A1.5,1.5,0,0,0,9,3.5V6H7V3.5A1.5,1.5,0,0,0,5.5,2h-3A1.5,1.5,0,0,0,1,3.5v3a1.64,1.64,0,0,0,.09.5A1.64,1.64,0,0,0,1,7.5v13A1.5,1.5,0,0,0,2.5,22h19A1.5,1.5,0,0,0,23,20.5V7.5a1.64,1.64,0,0,0-.09-.5A1.64,1.64,0,0,0,23,6.5ZM19,4h2V6H19ZM11,4h2V6H11ZM3,4H5V6H3ZM9,20V14h6v6Zm12,0H17V13.5A1.5,1.5,0,0,0,15.5,12h-7A1.5,1.5,0,0,0,7,13.5V20H3V8H21Z"/></g></svg>