<svg xmlns="http://www.w3.org/2000/svg" viewBox="0 0 24 24"><g id="ic-medicine-cells"><path d="M18.91,16.5a3,3,0,0,0-2.16.93l-2.43-.61a5.05,5.05,0,0,0,.59-2.32,5,5,0,0,0-.83-2.75l3-3a3.45,3.45,0,0,0,1.5.35,3.5,3.5,0,1,0-3.5-3.5,3.44,3.44,0,0,0,.51,1.8l-2.93,2.94A5,5,0,0,0,9.91,9.5a5,5,0,0,0-1.28.19L7.07,6.58a3,3,0,1,0-2.16.92,2.21,2.21,0,0,0,.37,0l1.56,3.13a5,5,0,0,0,6,7.93l3.08.77a1.52,1.52,0,0,0,0,.21,3,3,0,1,0,3-3Zm-15-12a1,1,0,1,1,1,1A1,1,0,0,1,3.91,4.5Zm14.68-.41a1.5,1.5,0,1,1-1.5,1.5A1.5,1.5,0,0,1,18.59,4.09ZM6.91,14.5a3,3,0,1,1,3,3A3,3,0,0,1,6.91,14.5Zm12,6a1,1,0,1,1,1-1A1,1,0,0,1,18.91,20.5Z"/></g></svg>