<svg xmlns="http://www.w3.org/2000/svg" viewBox="0 0 24 24"><defs><style>.cls-1{fill:#0e1317;}</style></defs><g id="Layer-47" data-name="Layer"><path class="cls-1" d="M4,3H19a1,1,0,0,0,0-2H4A1,1,0,0,0,4,3Z"/><path class="cls-1" d="M15,7a1,1,0,0,0,0-2H8A1,1,0,0,0,8,7Z"/><path class="cls-1" d="M5,10a1,1,0,0,0,1,1H17a1,1,0,0,0,0-2H6A1,1,0,0,0,5,10Z"/><path class="cls-1" d="M4,15H19a1,1,0,0,0,0-2H4a1,1,0,0,0,0,2Z"/><path class="cls-1" d="M7,17a1,1,0,0,0,0,2h9a1,1,0,0,0,0-2Z"/><path class="cls-1" d="M22,21H2a1,1,0,0,0,0,2H22a1,1,0,0,0,0-2Z"/></g></svg>