<svg xmlns="http://www.w3.org/2000/svg" viewBox="0 0 24 24"><defs><style>.cls-1{fill:#0e1317;fill-rule:evenodd;}</style></defs><g id="Layer-223" data-name="Layer"><path class="cls-1" d="M21.85,11.67A4.43,4.43,0,0,0,20,9.92V4.31A1.53,1.53,0,0,0,19.22,3,14.54,14.54,0,0,0,4.78,3,1.53,1.53,0,0,0,4,4.31V9.92a4.43,4.43,0,0,0-1.85,1.75,1.13,1.13,0,0,0-.15.57V18a3,3,0,0,0,3,3v1a1,1,0,0,0,2,0V21H17v1a1,1,0,0,0,2,0V21a3,3,0,0,0,3-3V12.24A1.13,1.13,0,0,0,21.85,11.67ZM20,12.49v1.44a36.42,36.42,0,0,0-4-.71v-.73A2.44,2.44,0,0,1,20,12.49ZM6,4.58a12.58,12.58,0,0,1,12,0V9.45a4.41,4.41,0,0,0-3.85,2.22,1.13,1.13,0,0,0-.15.57v.81a33.36,33.36,0,0,0-4,0v-.81a1.13,1.13,0,0,0-.15-.57A4.41,4.41,0,0,0,6,9.45Zm2,7.91v.73a36.42,36.42,0,0,0-4,.71V12.49A2.44,2.44,0,0,1,8,12.49ZM19,19H5a1,1,0,0,1-1-1V16.25a.35.35,0,0,1,.26-.33,32.67,32.67,0,0,1,15.48,0,.35.35,0,0,1,.26.33V18A1,1,0,0,1,19,19Z"/></g></svg>