<svg xmlns="http://www.w3.org/2000/svg" viewBox="0 0 24 24"><defs><style>.cls-1{fill:#0e1317;fill-rule:evenodd;}</style></defs><g id="Layer-159" data-name="Layer"><g id="Vrstva_255" data-name="Vrstva 255"><path class="cls-1" d="M22,10.7H3.06V2a1,1,0,0,0-2,0V22a1,1,0,0,0,2,0V12.7H22a1,1,0,0,0,0-2Z"/><path class="cls-1" d="M6.73,7.69v-3A1,1,0,0,0,6.44,4a1,1,0,0,0-.71-.29,1,1,0,0,0-1,1v3A1,1,0,0,0,5,8.4a1,1,0,0,0,.7.29,1,1,0,0,0,1-1Z"/><path class="cls-1" d="M9.73,7.69v-5A1,1,0,0,0,9.44,2a1,1,0,0,0-.71-.29,1,1,0,0,0-1,1v5A1,1,0,0,0,8,8.4a1,1,0,0,0,.7.29,1,1,0,0,0,1-1Z"/><path class="cls-1" d="M12.73,7.69v-2A1,1,0,0,0,12.44,5a1,1,0,0,0-.71-.29,1,1,0,0,0-1,1v2a1,1,0,0,0,.3.71,1,1,0,0,0,.7.29,1,1,0,0,0,1-1Z"/><path class="cls-1" d="M20.73,14.69a1,1,0,0,0-1,1v3a1,1,0,0,0,.3.71,1,1,0,0,0,.7.29,1,1,0,0,0,1-1v-3a1,1,0,0,0-.29-.71A1,1,0,0,0,20.73,14.69Z"/><path class="cls-1" d="M17.73,14.69a1,1,0,0,0-1,1v5a1,1,0,0,0,.3.71,1,1,0,0,0,.7.29,1,1,0,0,0,1-1v-5a1,1,0,0,0-.29-.71A1,1,0,0,0,17.73,14.69Z"/><path class="cls-1" d="M14.73,14.69a1,1,0,0,0-1,1v2a1,1,0,0,0,.3.71,1,1,0,0,0,.7.29,1,1,0,0,0,1-1v-2a1,1,0,0,0-.07-.38,1.19,1.19,0,0,0-.22-.33,1,1,0,0,0-.32-.21A1,1,0,0,0,14.73,14.69Z"/></g></g></svg>