<svg xmlns="http://www.w3.org/2000/svg" viewBox="0 0 24 24"><defs><style>.cls-1{fill:#0e1317;fill-rule:evenodd;}</style></defs><g id="Layer-160" data-name="Layer"><g id="Vrstva_251" data-name="Vrstva 251"><path class="cls-1" d="M22.18,20.61,4.19,21a1,1,0,0,1-1-1L2.8,2a1,1,0,1,0-2,0l.37,18A3,3,0,0,0,4.23,23l18-.37a1,1,0,1,0,0-2Z"/><path class="cls-1" d="M7.49,11.21A2.5,2.5,0,0,0,5,13.76l.06,3a2.5,2.5,0,0,0,5-.11l-.06-3A2.49,2.49,0,0,0,7.49,11.21Zm.12,6a.49.49,0,0,1-.51-.49l-.06-3a.49.49,0,0,1,.49-.51A.5.5,0,0,1,8,13.7l.06,3A.5.5,0,0,1,7.61,17.2Z"/><path class="cls-1" d="M13.38,6.08a2.51,2.51,0,0,0-2.45,2.55l.07,3a2.5,2.5,0,0,0,5-.1l-.07-3A2.5,2.5,0,0,0,13.38,6.08Zm.13,6a.49.49,0,0,1-.51-.49l-.07-3a.52.52,0,0,1,.49-.51.5.5,0,0,1,.51.49l.07,3A.5.5,0,0,1,13.51,12.08Z"/><path class="cls-1" d="M19.3,2a2.5,2.5,0,0,0-2.45,2.55l.06,3a2.5,2.5,0,0,0,5-.1l-.06-3A2.5,2.5,0,0,0,19.3,2Zm.12,6a.5.5,0,0,1-.51-.49l-.06-3A.51.51,0,0,1,19.34,4a.5.5,0,0,1,.51.49l.06,3A.49.49,0,0,1,19.42,8Z"/></g></g></svg>