<svg xmlns="http://www.w3.org/2000/svg" viewBox="0 0 24 24"><defs><style>.cls-1{fill:#0e1317;}</style></defs><g id="Layer-79" data-name="Layer"><g id="Vrstva_148" data-name="Vrstva 148"><path class="cls-1" d="M20,7.39H17v-2a3,3,0,0,0-3-3H4a3,3,0,0,0-3,3v6a3,3,0,0,0,3,3H5.55L7,16v.36a3,3,0,0,0,3,3h3.55l1.51,1.71a1.5,1.5,0,0,0,2.25,0l1.51-1.71H20a3,3,0,0,0,3-3v-6A3,3,0,0,0,20,7.39Zm-16,5a1,1,0,0,1-1-1v-6a1,1,0,0,1,1-1H14a1,1,0,0,1,1,1v6a1,1,0,0,1-1,1H9.93l-1.74,2-1.74-2Zm17,4a1,1,0,0,1-1,1H17.93l-1.74,2.08-1.74-2.08H10a1,1,0,0,1-1-1v0a1.58,1.58,0,0,0,.31-.27l1.51-1.71H14a3,3,0,0,0,3-3v-2h3a1,1,0,0,1,1,1Z"/></g></g></svg>