<svg xmlns="http://www.w3.org/2000/svg" viewBox="0 0 24 24"><defs><style>.cls-1{fill:#0e1317;fill-rule:evenodd;}</style></defs><g id="Layer-235" data-name="Layer"><path class="cls-1" d="M14,9H13V8a1,1,0,0,0-2,0V9H10a1,1,0,0,0,0,2h1v2a1,1,0,0,0,2,0V11h1a1,1,0,0,0,0-2Z"/><path class="cls-1" d="M20.54,13.44,19,13.17V8.83a3,3,0,0,0-.88-2.12L13.06,1.65a1.49,1.49,0,0,0-2.12,0L5.88,6.71A3,3,0,0,0,5,8.83v4.34l-1.54.27A3,3,0,0,0,1,16.4V21a2,2,0,0,0,2,2H21a2,2,0,0,0,2-2V16.4A3,3,0,0,0,20.54,13.44ZM5,21H3V16.4a1,1,0,0,1,.82-1L5,15.2Zm12,0H7V8.83a1,1,0,0,1,.29-.71L12,3.41l4.71,4.71a1,1,0,0,1,.29.71V21Zm4,0H19V15.2l1.18.21a1,1,0,0,1,.82,1Z"/></g></svg>