<svg xmlns="http://www.w3.org/2000/svg" viewBox="0 0 24 24"><defs><style>.cls-1{fill:#0e1317;fill-rule:evenodd;}</style></defs><g id="Layer-243" data-name="Layer"><path class="cls-1" d="M4,16a3,3,0,0,0-3,3v.5A1.5,1.5,0,0,0,2.5,21h3A1.5,1.5,0,0,0,7,19.5V19A3,3,0,0,0,4,16ZM3,19a1,1,0,0,1,2,0Z"/><path class="cls-1" d="M12,16a3,3,0,0,0-3,3v.5A1.5,1.5,0,0,0,10.5,21h3A1.5,1.5,0,0,0,15,19.5V19A3,3,0,0,0,12,16Zm-1,3a1,1,0,0,1,2,0Z"/><path class="cls-1" d="M20,16a3,3,0,0,0-3,3v.5A1.5,1.5,0,0,0,18.5,21h3A1.5,1.5,0,0,0,23,19.5V19A3,3,0,0,0,20,16Zm-1,3a1,1,0,0,1,2,0Z"/><path class="cls-1" d="M19.74,3.2l-7.89.69h-.18L4.28,3.21A3,3,0,0,0,1,6.19V14a1,1,0,0,0,2,0V6.19a1,1,0,0,1,1.09-1l7.39.68a2.44,2.44,0,0,0,.54,0l7.89-.69a1,1,0,0,1,1.09,1V14a1,1,0,0,0,2,0V6.18A3,3,0,0,0,19.74,3.2Z"/><path class="cls-1" d="M10.84,13.66l3.42-2.14a1.21,1.21,0,0,0,0-2L10.84,7.34A1.2,1.2,0,0,0,9,8.36v4.28A1.2,1.2,0,0,0,10.84,13.66ZM11,9.8l1.11.7L11,11.2Z"/></g></svg>