<svg xmlns="http://www.w3.org/2000/svg" viewBox="0 0 24 24"><defs><style>.cls-1{fill:#0e1317;fill-rule:evenodd;}</style></defs><g id="Layer-176" data-name="Layer"><g id="Vrstva_223" data-name="Vrstva 223"><path class="cls-1" d="M21.8,11H13V2.2A1.2,1.2,0,0,0,11.78,1a11,11,0,0,0-1.09,21.92c.11,0,.21,0,.31,0V23h1A11,11,0,0,0,23,12.22,1.2,1.2,0,0,0,21.8,11ZM10.72,20.91A9,9,0,0,1,11,3.05V11.8A1.2,1.2,0,0,0,12.2,13H21A9,9,0,0,1,10.72,20.91Z"/><path class="cls-1" d="M15.2,10h6.07A1.2,1.2,0,0,0,22.4,8.41,11,11,0,0,0,15.59,1.6,1.2,1.2,0,0,0,14,2.73V8.8A1.2,1.2,0,0,0,15.2,10ZM16,3.93A9.11,9.11,0,0,1,20.07,8H16Z"/></g></g></svg>