<svg xmlns="http://www.w3.org/2000/svg" viewBox="0 0 24 24"><defs><style>.cls-1{fill:#0e1317;fill-rule:evenodd;}</style></defs><g id="Layer-272" data-name="Layer"><path class="cls-1" d="M20,2.5H4a3,3,0,0,0-3,3v8a3,3,0,0,0,3,3H20a3,3,0,0,0,3-3v-8A3,3,0,0,0,20,2.5Zm-4,2v1a1,1,0,0,1-1,1H9a1,1,0,0,1-1-1v-1Zm5,9a1,1,0,0,1-1,1H4a1,1,0,0,1-1-1v-8a1,1,0,0,1,1-1H6v1a3,3,0,0,0,3,3h6a3,3,0,0,0,3-3v-1h2a1,1,0,0,1,1,1Z"/><path class="cls-1" d="M18,10.5H6a1,1,0,0,0,0,2H18a1,1,0,0,0,0-2Z"/><path class="cls-1" d="M6,17.5a1,1,0,0,0-1,1v2a1,1,0,0,0,2,0v-2A1,1,0,0,0,6,17.5Z"/><path class="cls-1" d="M10,17.5a1,1,0,0,0-1,1v2a1,1,0,0,0,2,0v-2A1,1,0,0,0,10,17.5Z"/><path class="cls-1" d="M14,17.5a1,1,0,0,0-1,1v2a1,1,0,0,0,2,0v-2A1,1,0,0,0,14,17.5Z"/><path class="cls-1" d="M18,17.5a1,1,0,0,0-1,1v2a1,1,0,0,0,2,0v-2A1,1,0,0,0,18,17.5Z"/></g></svg>