<svg xmlns="http://www.w3.org/2000/svg" viewBox="0 0 24 24"><defs><style>.cls-1{fill:#0e1317;}</style></defs><g id="Layer-8" data-name="Layer"><g id="Vrstva_109" data-name="Vrstva 109"><path class="cls-1" d="M22.23,11.72l-.84-1.45a3.92,3.92,0,0,0,.26-.34l.13-.18,0-.05v0h0l-.34-.22L21,9.14l.47.31.34.22a1,1,0,0,0-1.68-1.1h0l0,0-.1.13c-.09.13-.22.3-.4.52A13,13,0,0,1,18,10.85a9.53,9.53,0,0,1-6,2.27,9.53,9.53,0,0,1-6-2.27A13,13,0,0,1,4.36,9.26C4.18,9,4.05,8.87,4,8.74l-.1-.13,0,0h0a1,1,0,0,0-1.68,1.1l.78-.51-.78.51h0v0l0,.05.13.18.1.14-1,1.65a1,1,0,1,0,1.73,1l.63-1.09c.26.25.54.51.86.77a13.3,13.3,0,0,0,1.51,1.06L5.5,14.72a1,1,0,1,0,1.73,1L8,14.35a10.65,10.65,0,0,0,3,.72s0,0,0,0v1a1,1,0,0,0,2,0v-1s0,0,0,0a10.9,10.9,0,0,0,2.77-.64l.74,1.29a1,1,0,1,0,1.73-1l-.66-1.15a13.07,13.07,0,0,0,1.71-1.17c.25-.2.47-.41.69-.6l.53.92a1,1,0,1,0,1.73-1Z"/></g></g></svg>