<svg xmlns="http://www.w3.org/2000/svg" viewBox="0 0 24 24"><defs><style>.cls-1{fill:#0e1317;fill-rule:evenodd;}</style></defs><g id="Layer-262" data-name="Layer"><path class="cls-1" d="M9,5.75a3,3,0,1,1,3,3A3,3,0,0,1,9,5.75ZM8.54,9.36A10,10,0,0,0,2,18.75v1a1,1,0,0,0,2,0v-1a8,8,0,0,1,8-8A5,5,0,1,0,8.54,9.36ZM16,13.25a4,4,0,1,0,4,4A4,4,0,0,0,16,13.25Zm-6,4a6,6,0,1,1,6,6A6,6,0,0,1,10,17.25Zm3.59,2.5a1,1,0,0,1,0-1.42l1.06-1.06-1.11-1.1A1,1,0,0,1,15,14.75l1.1,1.11,1.06-1.06a1,1,0,0,1,1.42,0,1,1,0,0,1,0,1.41l-1.06,1.06,1,1a1,1,0,0,1-1.41,1.41l-1-1L15,19.75A1,1,0,0,1,13.59,19.75Z"/></g></svg>