<svg xmlns="http://www.w3.org/2000/svg" viewBox="0 0 24 24"><defs><style>.cls-1{fill:#0e1317;}</style></defs><g id="Layer-199" data-name="Layer"><path class="cls-1" d="M12.22,22a10.06,10.06,0,0,1-7.08-2.73,9.75,9.75,0,0,1-3-5.74A9.8,9.8,0,0,1,2.35,9.4a.13.13,0,0,0-.06-.17A3.41,3.41,0,0,1,1,6.21a3.45,3.45,0,0,1,2.48-3A.3.3,0,0,0,3.66,3,3.91,3.91,0,0,1,5.91,1.2,3.59,3.59,0,0,1,9.46,2a1.14,1.14,0,0,1,.19.19.2.2,0,0,0,.25.07,9.82,9.82,0,0,1,6.69.91A9.81,9.81,0,0,1,21,7.59a9.53,9.53,0,0,1,1,3.62c0,.4,0,.8,0,1.2a.3.3,0,0,0,.06.18,3.91,3.91,0,0,1,0,5.09A3.57,3.57,0,0,1,19.27,19a.33.33,0,0,0-.25.1,9.92,9.92,0,0,1-5.35,2.76C13.12,22,12.55,22,12.22,22ZM12,4l.11.12a3.41,3.41,0,0,1,.85,3.09A3.49,3.49,0,0,1,8.34,9.82a.25.25,0,0,0-.17,0,3.64,3.64,0,0,1-2.33,0,.3.3,0,0,0-.21,0A3.52,3.52,0,0,1,4.39,10c-.11,0-.15,0-.18.12a8.07,8.07,0,0,0-.11,3.21A8,8,0,0,0,11.5,20a7.92,7.92,0,0,0,4-.79l.41-.22-.68-.2a.46.46,0,0,0-.26,0,3.59,3.59,0,0,1-3.81-.85A3.76,3.76,0,0,1,10,14.7a3.83,3.83,0,0,1,2.69-3.26.2.2,0,0,0,.14-.11,5,5,0,0,1,1.21-1.45,3.76,3.76,0,0,1,3.27-.77,4.12,4.12,0,0,1,2.47,1.73l.1.14A8,8,0,0,0,12,4Zm7.2,13a1.79,1.79,0,0,0,.94-.24,1.88,1.88,0,0,0,.85-2,1.75,1.75,0,0,0-1.35-1.44,4.53,4.53,0,0,0-.74-.08c-.07,0-.1,0-.12-.09s-.09-.25-.14-.37a3.23,3.23,0,0,0-.78-1.24,1.84,1.84,0,0,0-2-.39,2.15,2.15,0,0,0-1.07,1c-.18.32-.3.66-.45,1a.16.16,0,0,1-.16.13,4.35,4.35,0,0,0-.88.13,1.88,1.88,0,0,0-1,2.71,1.69,1.69,0,0,0,2.29.71l.5-.29a.19.19,0,0,1,.13,0l.48.27a1.7,1.7,0,0,0,1.52.08,5.19,5.19,0,0,0,.66-.35.14.14,0,0,1,.15,0l.44.27A1.67,1.67,0,0,0,19.15,17ZM11,6.52A1.5,1.5,0,0,0,9.75,5a1.79,1.79,0,0,0-.46,0c-.24,0-.33-.1-.4-.31a2.66,2.66,0,0,0-.57-1,1.71,1.71,0,0,0-1.59-.6A1.8,1.8,0,0,0,5.44,4a6.39,6.39,0,0,0-.4.88A.24.24,0,0,1,4.82,5a4.38,4.38,0,0,0-.5,0,1.5,1.5,0,1,0,.9,2.8c.15-.08.28-.17.43-.24a.17.17,0,0,1,.14,0l.38.2a1.57,1.57,0,0,0,1.57,0l.44-.23a.15.15,0,0,1,.18,0c.14.08.27.16.42.23A1.49,1.49,0,0,0,11,6.52Z"/></g></svg>