<svg xmlns="http://www.w3.org/2000/svg" viewBox="0 0 24 24"><defs><style>.cls-1{fill:#0e1317;}</style></defs><g id="Layer-96" data-name="Layer"><g id="Vrstva_131" data-name="Vrstva 131"><path class="cls-1" d="M3.23,18.3a2.5,2.5,0,1,0,2.5-2.5A2.5,2.5,0,0,0,3.23,18.3Zm3,0a.51.51,0,0,1-.5.5.5.5,0,0,1-.5-.5.5.5,0,0,1,.5-.5A.5.5,0,0,1,6.23,18.3Z"/><path class="cls-1" d="M3.23,13.2a1,1,0,0,0,0,2h9.21l1.32,4.86a1,1,0,0,0,1.93-.53L14.51,15.2h1.56a1.19,1.19,0,0,0,1.16-.91L19.51,5.2h2.22a1,1,0,0,0,0-2H18.88a1.2,1.2,0,0,0-1.16.91L15.45,13.2Z"/><path class="cls-1" d="M2.71,11.25a1.2,1.2,0,0,0,1.18.95h9.67a1.2,1.2,0,0,0,1.18-.95l1.41-6.6A1.2,1.2,0,0,0,15,3.2H2.47A1.2,1.2,0,0,0,1.3,4.65ZM14,5.2l-1.07,5H4.53l-1.07-5Z"/></g></g></svg>