<svg xmlns="http://www.w3.org/2000/svg" viewBox="0 0 24 24"><defs><style>.cls-1{fill:#0e1317;fill-rule:evenodd;}</style></defs><g id="Layer-150" data-name="Layer"><g id="Vrstva_273" data-name="Vrstva 273"><path class="cls-1" d="M22,5.2A1.2,1.2,0,0,0,20.8,4H17a1,1,0,0,0,0,2h3V9a1,1,0,0,0,2,0Z"/><path class="cls-1" d="M7,4H3.2A1.2,1.2,0,0,0,2,5.2V9A1,1,0,0,0,4,9V6H7A1,1,0,0,0,7,4Z"/><path class="cls-1" d="M3,14a1,1,0,0,0-1,1v3.8A1.2,1.2,0,0,0,3.2,20H7a1,1,0,0,0,0-2H4V15A1,1,0,0,0,3,14Z"/><path class="cls-1" d="M17,20h3.8A1.2,1.2,0,0,0,22,18.8V15a1,1,0,0,0-2,0v3H17a1,1,0,0,0,0,2Z"/><path class="cls-1" d="M11,9v6a1,1,0,0,0,2,0V9a1,1,0,0,0-2,0Z"/><path class="cls-1" d="M8,9A1,1,0,0,0,6,9v6a1,1,0,0,0,2,0Z"/><path class="cls-1" d="M17,16a1,1,0,0,0,1-1V9a1,1,0,0,0-2,0v6A1,1,0,0,0,17,16Z"/></g></g></svg>