<svg xmlns="http://www.w3.org/2000/svg" viewBox="0 0 24 24"><defs><style>.cls-1{fill:#0e1317;fill-rule:evenodd;}</style></defs><g id="Layer-179" data-name="Layer"><g id="Vrstva_216" data-name="Vrstva 216"><path class="cls-1" d="M2.73,19.4l5.6,2.4A1.2,1.2,0,0,0,10,20.7V3.3A1.2,1.2,0,0,0,8.33,2.2L2.73,4.6A1.2,1.2,0,0,0,2,5.7V18.3A1.2,1.2,0,0,0,2.73,19.4ZM4,6.23,8,4.52v15L4,17.77Z"/><path class="cls-1" d="M13,20a1,1,0,0,0,1-1V5a1,1,0,0,0-2,0V19A1,1,0,0,0,13,20Z"/><path class="cls-1" d="M17,20a1,1,0,0,0,1-1V5a1,1,0,0,0-2,0V19A1,1,0,0,0,17,20Z"/><path class="cls-1" d="M21,20a1,1,0,0,0,1-1V5a1,1,0,0,0-2,0V19A1,1,0,0,0,21,20Z"/></g></g></svg>