<svg xmlns="http://www.w3.org/2000/svg" viewBox="0 0 24 24"><defs><style>.cls-1{fill:#0e1317;fill-rule:evenodd;}</style></defs><g id="Layer-246" data-name="Layer"><path class="cls-1" d="M6,16a6,6,0,0,1,12,0v6a1,1,0,0,1-2,0V16a4,4,0,0,0-8,0v6a1,1,0,0,1-2,0Z"/><path class="cls-1" d="M12,2a1,1,0,0,1,1,1v8a1,1,0,0,1-2,0V3A1,1,0,0,1,12,2Z"/><path class="cls-1" d="M15.71,5.71a1,1,0,0,1-1.42,0L12,3.41,9.71,5.71A1,1,0,0,1,8.29,4.29l2.65-2.64a1.49,1.49,0,0,1,2.12,0l2.65,2.64A1,1,0,0,1,15.71,5.71Z"/></g></svg>