<svg xmlns="http://www.w3.org/2000/svg" viewBox="0 0 24 24"><defs><style>.cls-1{fill:#0e1317;fill-rule:evenodd;}</style></defs><g id="Layer-215" data-name="Layer"><path class="cls-1" d="M2,9A3,3,0,0,1,5,6H9a3,3,0,0,1,3,3V19a3,3,0,0,1-3,3H5a3,3,0,0,1-3-3ZM5,8A1,1,0,0,0,4,9V19a1,1,0,0,0,1,1H9a1,1,0,0,0,1-1V9A1,1,0,0,0,9,8Z"/><path class="cls-1" d="M2,3A1,1,0,0,1,3,2H21a1,1,0,0,1,0,2H3A1,1,0,0,1,2,3Z"/><path class="cls-1" d="M14,8a1,1,0,0,1,1-1h6a1,1,0,0,1,0,2H15A1,1,0,0,1,14,8Z"/><path class="cls-1" d="M14,12a1,1,0,0,1,1-1h4a1,1,0,0,1,0,2H15A1,1,0,0,1,14,12Z"/><path class="cls-1" d="M14,16a1,1,0,0,1,1-1h4a1,1,0,0,1,0,2H15A1,1,0,0,1,14,16Z"/><path class="cls-1" d="M14,20a1,1,0,0,1,1-1h4a1,1,0,0,1,0,2H15A1,1,0,0,1,14,20Z"/></g></svg>