<svg xmlns="http://www.w3.org/2000/svg" viewBox="0 0 24 24"><g id="ic-mobile-contrast"><path d="M12,23a1,1,0,0,1-.71-.29L8.66,20.07H4.93a1,1,0,0,1-1-1V15.34L1.29,12.71a1,1,0,0,1,0-1.42L3.93,8.66V4.93a1,1,0,0,1,1-1H8.66l2.63-2.64a1,1,0,0,1,1.42,0l2.63,2.64h3.73a1,1,0,0,1,1,1V8.66l2.64,2.63a1,1,0,0,1,0,1.42l-2.64,2.63v3.73a1,1,0,0,1-1,1H15.34l-2.63,2.64A1,1,0,0,1,12,23ZM5.93,18.07H9.07a1,1,0,0,1,.71.29L12,20.59l2.22-2.23a1,1,0,0,1,.71-.29h3.14V14.93a1,1,0,0,1,.29-.71L20.59,12,18.36,9.78a1,1,0,0,1-.29-.71V5.93H14.93a1,1,0,0,1-.71-.29L12,3.41,9.78,5.64a1,1,0,0,1-.71.29H5.93V9.07a1,1,0,0,1-.29.71L3.41,12l2.23,2.22a1,1,0,0,1,.29.71Z"/><path d="M12.5,18a1,1,0,0,1-.67-.26A1,1,0,0,1,11.5,17V7.05a1,1,0,0,1,.33-.74,1,1,0,0,1,.77-.25,6,6,0,0,1,0,11.88Zm1-9.64v7.38a4,4,0,0,0,0-7.38Z"/></g></svg>