<svg xmlns="http://www.w3.org/2000/svg" viewBox="0 0 24 24"><defs><style>.cls-1{fill:#0e1317;fill-rule:evenodd;}</style></defs><g id="Layer-216" data-name="Layer"><path class="cls-1" d="M2,5A3,3,0,0,1,5,2H9a3,3,0,0,1,3,3V15a3,3,0,0,1-3,3H5a3,3,0,0,1-3-3ZM5,4A1,1,0,0,0,4,5V15a1,1,0,0,0,1,1H9a1,1,0,0,0,1-1V5A1,1,0,0,0,9,4Z"/><path class="cls-1" d="M2,21a1,1,0,0,1,1-1H21a1,1,0,0,1,0,2H3A1,1,0,0,1,2,21Z"/><path class="cls-1" d="M14,4a1,1,0,0,1,1-1h6a1,1,0,0,1,0,2H15A1,1,0,0,1,14,4Z"/><path class="cls-1" d="M14,8a1,1,0,0,1,1-1h4a1,1,0,0,1,0,2H15A1,1,0,0,1,14,8Z"/><path class="cls-1" d="M14,12a1,1,0,0,1,1-1h4a1,1,0,0,1,0,2H15A1,1,0,0,1,14,12Z"/><path class="cls-1" d="M14,16a1,1,0,0,1,1-1h4a1,1,0,0,1,0,2H15A1,1,0,0,1,14,16Z"/></g></svg>