<svg xmlns="http://www.w3.org/2000/svg" viewBox="0 0 24 24"><defs><style>.cls-1{fill:#0e1317;fill-rule:evenodd;}</style></defs><g id="Layer-275" data-name="Layer"><path class="cls-1" d="M20,1H4A3,3,0,0,0,1,4V20a3,3,0,0,0,3,3H20a3,3,0,0,0,3-3V4A3,3,0,0,0,20,1Zm0,2a1,1,0,0,1,1,1v7H13V3ZM3,4A1,1,0,0,1,4,3h7v8H3ZM4,21a1,1,0,0,1-1-1V13h8v8Zm17-1a1,1,0,0,1-1,1H13V13h8Z"/><path class="cls-1" d="M9,6H8V5A1,1,0,0,0,6,5V6H5A1,1,0,0,0,5,8H6V9A1,1,0,0,0,8,9V8H9A1,1,0,0,0,9,6Z"/><path class="cls-1" d="M9,16H5a1,1,0,0,0,0,2H9a1,1,0,0,0,0-2Z"/><path class="cls-1" d="M15.17,16.5h4a1,1,0,0,0,0-2h-4a1,1,0,0,0,0,2Z"/><path class="cls-1" d="M19.17,17.5h-4a1,1,0,0,0,0,2h4a1,1,0,0,0,0-2Z"/><path class="cls-1" d="M14.88,6.29l.71.71-.71.71a1,1,0,0,0,1.41,1.41L17,8.41l.71.71a1,1,0,0,0,1.41-1.41L18.41,7l.71-.71a1,1,0,0,0-1.41-1.41L17,5.59l-.71-.71a1,1,0,0,0-1.41,1.41Z"/></g></svg>