<svg xmlns="http://www.w3.org/2000/svg" viewBox="0 0 24 24"><defs><style>.cls-1{fill:#0e1317;fill-rule:evenodd;}</style></defs><g id="Layer-234" data-name="Layer"><path class="cls-1" d="M21,20H3a1,1,0,0,0,0,2H21a1,1,0,0,0,0-2Z"/><path class="cls-1" d="M4,11v7a1,1,0,0,0,2,0V11a1,1,0,0,0-2,0Z"/><path class="cls-1" d="M9,11v7a1,1,0,0,0,2,0V11a1,1,0,0,0-2,0Z"/><path class="cls-1" d="M14,11v7a1,1,0,0,0,2,0V11a1,1,0,0,0-2,0Z"/><path class="cls-1" d="M19,11v7a1,1,0,0,0,2,0V11a1,1,0,0,0-2,0Z"/><path class="cls-1" d="M3.81,9H20.19A1.5,1.5,0,0,0,21,6.21L13,1.45a2,2,0,0,0-2.06,0L3,6.21A1.5,1.5,0,0,0,3.81,9ZM12,3.17,18.39,7H5.61Z"/></g></svg>