<svg xmlns="http://www.w3.org/2000/svg" viewBox="0 0 24 24"><defs><style>.cls-1{fill:#0e1317;fill-rule:evenodd;}</style></defs><g id="Layer-4" data-name="Layer"><path class="cls-1" d="M12,1A11,11,0,1,0,23,12,11,11,0,0,0,12,1Zm0,20a9,9,0,1,1,9-9A9,9,0,0,1,12,21Z"/><path class="cls-1" d="M15.35,14.43a1,1,0,0,0-1.26.52,2.21,2.21,0,0,1-2,1.41h-.22a2.2,2.2,0,0,1-2-1.41,1,1,0,0,0-1.26-.52,1,1,0,0,0-.59,1.28,4.08,4.08,0,0,0,3.83,2.65h.22a4.08,4.08,0,0,0,3.83-2.65A1,1,0,0,0,15.35,14.43Z"/><path class="cls-1" d="M18.34,7.38a1,1,0,0,0-1.41,0l-.71.71-.71-.71A1,1,0,1,0,14.1,8.79l.71.71-.71.71a1,1,0,0,0,1.41,1.41l.71-.71.71.71a1,1,0,0,0,1.41-1.41l-.7-.71.7-.71A1,1,0,0,0,18.34,7.38Z"/><path class="cls-1" d="M8.49,11.62A1,1,0,0,0,9.9,10.21L9.19,9.5l.71-.71A1,1,0,1,0,8.49,7.38l-.71.71-.71-.71A1,1,0,1,0,5.66,8.79l.7.71-.7.71a1,1,0,0,0,1.41,1.41l.71-.71Z"/></g></svg>