<svg xmlns="http://www.w3.org/2000/svg" viewBox="0 0 24 24"><defs><style>.cls-1{fill:#0e1317;fill-rule:evenodd;}</style></defs><g id="Layer-29" data-name="Layer"><path class="cls-1" d="M12,1A11,11,0,0,0,5.16,20.61a2.86,2.86,0,0,0,4.15,2.06A11.39,11.39,0,0,0,12,23a11.16,11.16,0,0,0,2.67-.33A2.93,2.93,0,0,0,16,23a2.87,2.87,0,0,0,2.85-2.47.94.94,0,0,0,.31-.17A11,11,0,0,0,12,1ZM8,21a.89.89,0,0,1-.88-.93l.5-8.71h.7l.56,8.7A.88.88,0,0,1,8,21Zm8,0a.89.89,0,0,1-.88-.93l.5-8.71h.7l.56,8.7A.88.88,0,0,1,16,21ZM18.74,18l-.43-6.59h.19a1,1,0,0,0,0-2h-5a1,1,0,0,0,0,2h.11L13.12,20a2.75,2.75,0,0,0,.12,1A8.52,8.52,0,0,1,12,21a10.21,10.21,0,0,1-1.25-.09,2.9,2.9,0,0,0,.12-1l-.56-8.57h.19a1,1,0,0,0,0-2h-5a1,1,0,0,0,0,2h.11l-.38,6.56a9,9,0,1,1,13.51,0Z"/></g></svg>