<svg xmlns="http://www.w3.org/2000/svg" viewBox="0 0 24 24"><defs><style>.cls-1,.cls-2{fill:#0e1317;}.cls-2{fill-rule:evenodd;}</style></defs><g id="Layer-204" data-name="Layer"><path class="cls-1" d="M10.94,9.33a1,1,0,0,1,2,0v5.92a1,1,0,0,1-2,0Z"/><circle class="cls-1" cx="11.94" cy="18.57" r="1.25"/><path class="cls-2" d="M12.13,4.32a.2.2,0,0,0-.36,0L3.64,20.75a.2.2,0,0,0,.18.29H20.17a.2.2,0,0,0,.18-.29ZM10.87,1.63a1.2,1.2,0,0,1,2.15,0L22.86,21.3A1.2,1.2,0,0,1,21.79,23H2.21a1.19,1.19,0,0,1-1.07-1.73Z"/></g></svg>