<svg xmlns="http://www.w3.org/2000/svg" viewBox="0 0 24 24"><defs><style>.cls-1{fill:#0e1317;fill-rule:evenodd;}</style></defs><g id="Layer-230" data-name="Layer"><path class="cls-1" d="M22,8H2a1,1,0,0,0,0,2H4.38a1.63,1.63,0,0,0-.11.23L2,17.71A1,1,0,1,0,4,18.29l1-3.3H7a1.7,1.7,0,0,0,.22,0L8,18.24A1,1,0,1,0,10,17.76L8.13,10.32A3.09,3.09,0,0,0,8,10h8.39a1.63,1.63,0,0,0-.11.23L14,17.71a1,1,0,1,0,1.92.58l1-3.3H19a1.7,1.7,0,0,0,.22,0L20,18.24A1,1,0,0,0,22,17.76l-1.84-7.44A3.09,3.09,0,0,0,20,10h2a1,1,0,0,0,0-2ZM5.53,13l.65-2.2L6.73,13Zm12,0,.65-2.2.55,2.2Z"/></g></svg>