<svg xmlns="http://www.w3.org/2000/svg" viewBox="0 0 24 24"><defs><style>.cls-1{fill:#0e1317;fill-rule:evenodd;}</style></defs><g id="Layer-173" data-name="Layer"><g id="Vrstva_227" data-name="Vrstva 227"><path class="cls-1" d="M20,1H4A3,3,0,0,0,1,4V20a3,3,0,0,0,3,3H20a3,3,0,0,0,3-3V4A3,3,0,0,0,20,1Zm1,19a1,1,0,0,1-1,1H4a1,1,0,0,1-1-1V4A1,1,0,0,1,4,3H20a1,1,0,0,1,1,1Z"/><path class="cls-1" d="M18.43,6.13a1,1,0,0,0-1.41,0L5.71,17.45a1,1,0,1,0,1.41,1.41L18.43,7.55A1,1,0,0,0,18.43,6.13Z"/><path class="cls-1" d="M7.5,10.43A2.5,2.5,0,1,0,5,7.93,2.5,2.5,0,0,0,7.5,10.43Zm0-3a.5.5,0,0,1,.5.5.5.5,0,0,1-1,0A.5.5,0,0,1,7.5,7.43Z"/><path class="cls-1" d="M16.5,14.43a2.5,2.5,0,1,0,2.5,2.5A2.49,2.49,0,0,0,16.5,14.43Zm0,3a.5.5,0,0,1-.5-.5.5.5,0,0,1,1,0A.5.5,0,0,1,16.5,17.43Z"/></g></g></svg>