<svg xmlns="http://www.w3.org/2000/svg" viewBox="0 0 24 24"><defs><style>.cls-1{fill:#0e1317;fill-rule:evenodd;}</style></defs><g id="Layer-135" data-name="Layer"><g id="Vrstva_312" data-name="Vrstva 312"><path class="cls-1" d="M8.2,20h7.6A1.2,1.2,0,0,0,17,18.8V5.2A1.2,1.2,0,0,0,15.8,4H8.2A1.2,1.2,0,0,0,7,5.2V18.8A1.2,1.2,0,0,0,8.2,20ZM9,6h6V18H9Z"/><path class="cls-1" d="M2.2,17H4a1,1,0,0,0,0-2H3V9H4A1,1,0,0,0,4,7H2.2A1.2,1.2,0,0,0,1,8.2v7.6A1.2,1.2,0,0,0,2.2,17Z"/><path class="cls-1" d="M21.8,7H20a1,1,0,0,0,0,2h1v6H20a1,1,0,0,0,0,2h1.8A1.2,1.2,0,0,0,23,15.8V8.2A1.2,1.2,0,0,0,21.8,7Z"/></g></g></svg>