<svg xmlns="http://www.w3.org/2000/svg" viewBox="0 0 24 24"><g id="ic-medicine-dna"><path d="M22.25,6.7a1,1,0,0,0-1.41,0l-.71.7L16.6,3.87l.7-.71a1,1,0,0,0-1.41-1.41L11.65,6h0l-.36.35A4.52,4.52,0,0,0,10,10a4,4,0,0,0-.5,0,4.47,4.47,0,0,0-3.18,1.32L6,11.65H6L3.16,14.47h0L1.75,15.89A1,1,0,0,0,3.16,17.3l.71-.7L7.4,20.13l-.7.71a1,1,0,0,0,0,1.41,1,1,0,0,0,1.41,0L12.35,18h0l.36-.35A4.52,4.52,0,0,0,14,14a4,4,0,0,0,.5,0,4.47,4.47,0,0,0,3.18-1.32l.35-.36h0l2.83-2.82h0l1.41-1.41A1,1,0,0,0,22.25,6.7ZM18.72,8.82,17.3,10.23,13.77,6.7l1.41-1.42ZM5.28,15.18,6.7,13.77l3.53,3.53L8.82,18.72Zm6.33.67L8.15,12.39a2.57,2.57,0,0,1,3.14.32A2.49,2.49,0,0,1,11.61,15.85Zm1.1-4.56a2.49,2.49,0,0,1-.32-3.14l3.46,3.46A2.57,2.57,0,0,1,12.71,11.29Z"/></g></svg>