<svg xmlns="http://www.w3.org/2000/svg" viewBox="0 0 24 24"><defs><style>.cls-1{fill:#0e1317;}</style></defs><g id="Layer-58" data-name="Layer"><path class="cls-1" d="M18,4H10A3,3,0,0,0,7.18,6H7A3,3,0,0,0,4.17,8,1,1,0,0,0,4,8H2a1,1,0,0,0,0,2H4a1,1,0,0,0,.17,0A3,3,0,0,0,7,12h.37A3,3,0,0,0,10,13.58h4.74V17a3,3,0,0,0,3,3H20a3,3,0,0,0,3-3V9A5,5,0,0,0,18,4ZM6,9A1,1,0,0,1,7,8v2A1,1,0,0,1,6,9Zm15,8a1,1,0,0,1-1,1H17.74a1,1,0,0,1-1-1V12.78a1.2,1.2,0,0,0-1.2-1.2H10a1,1,0,0,1-1-1V7a1,1,0,0,1,1-1h8a3,3,0,0,1,3,3Z"/><path class="cls-1" d="M18,8H17a1,1,0,0,0,0,2h1a1,1,0,0,0,0-2Z"/></g></svg>