<svg xmlns="http://www.w3.org/2000/svg" viewBox="0 0 24 24"><defs><style>.cls-1{fill:#0e1317;fill-rule:evenodd;}</style></defs><g id="Layer-195" data-name="Layer"><path class="cls-1" d="M8.11,6.39,6,1.61a1,1,0,0,0-1.85,0L2.08,6.39a3.29,3.29,0,1,0,6,0ZM5.09,9a1.29,1.29,0,0,1-1.18-1.8l1.18-2.7,1.19,2.7A1.29,1.29,0,0,1,5.09,9Z"/><path class="cls-1" d="M19.52,1.61a1,1,0,0,0-1.85,0L15.31,6.93a3.6,3.6,0,1,0,6.57,0ZM18.59,10a1.6,1.6,0,0,1-1.46-2.24l1.46-3.29,1.47,3.29A1.6,1.6,0,0,1,18.59,10Z"/><path class="cls-1" d="M12.5,9.57a1,1,0,0,0-1.81,0L7.38,16.18a4.71,4.71,0,1,0,8.43,0ZM11.59,21a2.71,2.71,0,0,1-2.42-3.92l2.42-4.84L14,17.08A2.7,2.7,0,0,1,11.59,21Z"/></g></svg>