<svg xmlns="http://www.w3.org/2000/svg" viewBox="0 0 24 24"><defs><style>.cls-1{fill:#0e1317;fill-rule:evenodd;}</style></defs><g id="Layer-174" data-name="Layer"><g id="Vrstva_226" data-name="Vrstva 226"><path class="cls-1" d="M8.12,17a1,1,0,0,0,1-1V12.72h6V16a1,1,0,1,0,2,0V12.72h1V14a1,1,0,1,0,2,0V12.72H21a1,1,0,0,0,0-2h-.88V10a1,1,0,0,0-2,0v.72h-1V8a1,1,0,0,0-2,0v2.72h-6V8a1,1,0,1,0-2,0v2.72h-1V10a1,1,0,0,0-2,0v.72H3a1,1,0,0,0,0,2H4.12V14a1,1,0,0,0,2,0V12.72h1V16A1,1,0,0,0,8.12,17Z"/></g></g></svg>