<svg xmlns="http://www.w3.org/2000/svg" viewBox="0 0 24 24"><defs><style>.cls-1{fill:#0e1317;}</style></defs><g id="Layer-84" data-name="Layer"><g id="Vrstva_143" data-name="Vrstva 143"><path class="cls-1" d="M10,9.59l.14,4.1,4.1.14,6.51-6.5a2,2,0,0,0,0-2.83L19.31,3.09a2,2,0,0,0-2.82,0Zm7.73-4.85h0a.51.51,0,0,1,.17,0H18l.13,0,.06,0a.33.33,0,0,1,.1.06l.71.71a.5.5,0,0,1,0,.71l-5.54,5.54-1.36-.05L12,10.39l5.54-5.54A.46.46,0,0,1,17.71,4.74Z"/><path class="cls-1" d="M22,9.5a1,1,0,0,0-1,1v8a1,1,0,0,1-1,1H4a1,1,0,0,1-1-1V8.5a1,1,0,0,1,1-1H8a1,1,0,0,0,0-2H4a3,3,0,0,0-3,3v10a3,3,0,0,0,3,3H20a3,3,0,0,0,3-3v-8A1,1,0,0,0,22,9.5Z"/></g></g></svg>