<svg xmlns="http://www.w3.org/2000/svg" viewBox="0 0 24 24"><defs><style>.cls-1{fill:#0e1317;fill-rule:evenodd;}.cls-2,.cls-3{fill:none;stroke:#000;stroke-linecap:round;stroke-width:1.5px;}.cls-2{stroke-linejoin:bevel;}.cls-3{stroke-linejoin:round;}</style></defs><g id="Layer-32" data-name="Layer"><g id="ic-actions1-02"><path class="cls-1" d="M19.84,11.1a1,1,0,0,0-1,1V17a1,1,0,0,1-1,1h-10a1,1,0,0,1-1-1V4a1,1,0,0,1,1-1h5a1,1,0,0,0,0-2h-5A3,3,0,0,0,5,3H4.84a3,3,0,0,0-3,3V20a3,3,0,0,0,3,3h10a3,3,0,0,0,3-3,3,3,0,0,0,3-3V12.1A1,1,0,0,0,19.84,11.1Zm-5,9.9h-10a1,1,0,0,1-1-1V6a1,1,0,0,1,1-1V17a3,3,0,0,0,3,3h8A1,1,0,0,1,14.84,21Z"/><path class="cls-1" d="M21.57,3,20.16,1.59a2,2,0,0,0-2.83,0l-6.51,6.5.14,4.1,4.11.14,6.5-6.5A2,2,0,0,0,21.57,3ZM19.8,4.77l-5.53,5.54-1.37-.05-.05-1.37,5.54-5.54a.57.57,0,0,1,.16-.11h0l.18,0h.07l.12,0,.07,0a.53.53,0,0,1,.1.06l.7.71A.5.5,0,0,1,19.8,4.77Z"/><path class="cls-2" d="M20,11.24v5.65a2,2,0,0,1-2,2H7.81a2,2,0,0,1-2-2V4a2,2,0,0,1,2-2H13.7"/><path class="cls-2" d="M16.81,19.44v.66a2,2,0,0,1-2,2H4.6a2,2,0,0,1-2-2V6.17a2,2,0,0,1,2-2h.89"/><path class="cls-3" d="M19.38,2.19a1,1,0,0,0-1.41,0l-6,6h0l-.1,3a.21.21,0,0,0,.22.22l3-.1h0l6-6a1,1,0,0,0,0-1.42Z"/></g></g></svg>