<svg xmlns="http://www.w3.org/2000/svg" viewBox="0 0 24 24"><defs><style>.cls-1{fill:#0e1317;}</style></defs><g id="Layer-151" data-name="Layer"><g id="Vrstva_271" data-name="Vrstva 271"><path class="cls-1" d="M22.88,7.58A1,1,0,0,0,22,7H18.39a2.91,2.91,0,0,0-2.24,1c-.32.36-.59.75-.89,1.12L14,10.79c0-.14,0-.25-.06-.37A3,3,0,0,0,11.26,8c-.45,0-.91,0-1.36,0A2.86,2.86,0,0,0,8,8.73a3,3,0,0,0-1,2.32c0,2.88,0,5.76,0,8.64a.38.38,0,0,1-.08.23c-.18.21-.34.43-.51.65a1,1,0,0,1-.88.43H2a1,1,0,0,0-.76.33A1,1,0,0,0,2,23H5.58A2.93,2.93,0,0,0,8,21.82l2.76-3.57,6.84-8.82A1,1,0,0,1,18.44,9H22a1,1,0,0,0,.76-.34A.94.94,0,0,0,22.88,7.58Zm-11,5.94-2.8,3.62L9,17.23V11.05A1,1,0,0,1,10,10h.9A1,1,0,0,1,12,11.06V13a.32.32,0,0,0,0,.14C12.07,13.28,12,13.39,11.87,13.52Z"/><path class="cls-1" d="M10,7a3,3,0,1,1,3-3A3,3,0,0,1,10,7Zm0-2A1,1,0,1,0,9,4,1,1,0,0,0,10,5Z"/></g></g></svg>