<svg xmlns="http://www.w3.org/2000/svg" viewBox="0 0 24 24"><defs><style>.cls-1{fill:#0e1317;}</style></defs><g id="Layer-109" data-name="Layer"><g id="Vrstva_10" data-name="Vrstva 10"><path class="cls-1" d="M12,1A11,11,0,1,0,23,12,11,11,0,0,0,12,1Zm0,20a9,9,0,1,1,9-9A9,9,0,0,1,12,21Z"/><path class="cls-1" d="M17,13.36H7a1,1,0,0,0,0,2h3.6l.22,1.77a2.7,2.7,0,0,0,5.36,0l.22-1.77H17a1,1,0,0,0,0-2Zm-2.81,3.53a.7.7,0,0,1-1.38,0l-.19-1.53h1.76Z"/><circle class="cls-1" cx="8.5" cy="9.5" r="1.5"/><circle class="cls-1" cx="15.5" cy="9.5" r="1.5"/></g></g></svg>