<svg xmlns="http://www.w3.org/2000/svg" viewBox="0 0 24 24"><defs><style>.cls-1{fill:#0e1317;}</style></defs><g id="Layer-113" data-name="Layer"><g id="Vrstva_7" data-name="Vrstva 7"><g id="Vrstva_345" data-name="Vrstva 345"><g id="Vrstva_346" data-name="Vrstva 346"><path class="cls-1" d="M12,1A11,11,0,1,0,23,12,11,11,0,0,0,12,1Zm0,20a9,9,0,1,1,9-9A9,9,0,0,1,12,21Z"/><path class="cls-1" d="M15,15H9a1,1,0,0,0,0,2h6a1,1,0,0,0,0-2Z"/><path class="cls-1" d="M8.44,10h.12a.54.54,0,0,1,.5.35,1,1,0,0,0,1.88-.7A2.55,2.55,0,0,0,8.56,8H8.44A2.55,2.55,0,0,0,6.06,9.65a1,1,0,0,0,1.88.7A.54.54,0,0,1,8.44,10Z"/><path class="cls-1" d="M15.56,8h-.12a2.55,2.55,0,0,0-2.38,1.65,1,1,0,0,0,1.88.7.54.54,0,0,1,.5-.35h.12a.54.54,0,0,1,.5.35,1,1,0,1,0,1.88-.7A2.55,2.55,0,0,0,15.56,8Z"/></g></g></g></g></svg>