<svg xmlns="http://www.w3.org/2000/svg" viewBox="0 0 24 24"><defs><style>.cls-1{fill:#0e1317;fill-rule:evenodd;}</style></defs><g id="Layer-279" data-name="Layer"><path class="cls-1" d="M22.65,6.19l-1.8-1.8a1.2,1.2,0,0,0-1.7,0l-1.8,1.8A1.23,1.23,0,0,0,17,7V9H15V7a1.23,1.23,0,0,0-.35-.85l-1.8-1.8a1.2,1.2,0,0,0-1.7,0l-1.8,1.8A1.23,1.23,0,0,0,9,7V9H7V7a1.23,1.23,0,0,0-.35-.85l-1.8-1.8a1.2,1.2,0,0,0-1.7,0l-1.8,1.8A1.23,1.23,0,0,0,1,7V18.76A1.2,1.2,0,0,0,2.2,20H5.8A1.2,1.2,0,0,0,7,18.76V15H9v3.8A1.2,1.2,0,0,0,10.2,20h3.6a1.2,1.2,0,0,0,1.2-1.2V15h2v3.8A1.2,1.2,0,0,0,18.2,20h3.6a1.2,1.2,0,0,0,1.2-1.2V7A1.23,1.23,0,0,0,22.65,6.19ZM5,18H3V7.37l1-1,1,1Zm2-5V11H9v2Zm6,5H11V7.37l1-1,1,1Zm2-5V11h2v2Zm6,5H19V7.37l1-1,1,1Z"/></g></svg>