<svg xmlns="http://www.w3.org/2000/svg" viewBox="0 0 24 24"><defs><style>.cls-1{fill:#0e1317;fill-rule:evenodd;}</style></defs><g id="Layer-137" data-name="Layer"><g id="Vrstva_304" data-name="Vrstva 304"><path class="cls-1" d="M2,19a1,1,0,0,0,1-1V12A9,9,0,0,1,13.33,3.1,9.18,9.18,0,0,1,21,12.28V13a1,1,0,0,0,2,0V12A11,11,0,0,0,10.2,1.14,11.21,11.21,0,0,0,1,12.31V18A1,1,0,0,0,2,19Z"/><path class="cls-1" d="M23,18V17a1,1,0,0,0-2,0v1a1,1,0,0,0,2,0Z"/><path class="cls-1" d="M17,22a1,1,0,0,0,1-1V12a6,6,0,0,0-6.75-5.95A6.15,6.15,0,0,0,6,12.23v4.15a1,1,0,0,0,2,0V12a4,4,0,0,1,4.83-3.92A4.11,4.11,0,0,1,16,12.15V21A1,1,0,0,0,17,22Z"/><path class="cls-1" d="M6,21a1,1,0,0,0,2,0v-.87a1,1,0,0,0-2,0Z"/><path class="cls-1" d="M12,18.27a1,1,0,0,0-1,1V22a1,1,0,0,0,2,0V19.27A1,1,0,0,0,12,18.27Z"/><path class="cls-1" d="M13,12a1,1,0,0,0-2,0v3.64a1,1,0,0,0,2,0Z"/></g></g></svg>