<svg xmlns="http://www.w3.org/2000/svg" viewBox="0 0 24 24"><defs><style>.cls-1{fill:#0e1317;fill-rule:evenodd;}</style></defs><g id="Layer-271" data-name="Layer"><path class="cls-1" d="M20,9H15V4a3,3,0,0,0-3-3H4A3,3,0,0,0,1,4V20a3,3,0,0,0,3,3H20a3,3,0,0,0,3-3V12A3,3,0,0,0,20,9ZM13,21H4a1,1,0,0,1-1-1V4A1,1,0,0,1,4,3h8a1,1,0,0,1,1,1V21Zm8-1a1,1,0,0,1-1,1H15V11h5a1,1,0,0,1,1,1Z"/><path class="cls-1" d="M19,13H17a1,1,0,0,0,0,2h2a1,1,0,0,0,0-2Z"/><path class="cls-1" d="M19,17H17a1,1,0,0,0,0,2h2a1,1,0,0,0,0-2Z"/><path class="cls-1" d="M6,5H5A1,1,0,0,0,5,7H6A1,1,0,0,0,6,5Z"/><path class="cls-1" d="M11,5H9A1,1,0,0,0,9,7h2a1,1,0,0,0,0-2Z"/><path class="cls-1" d="M11,9H9a1,1,0,0,0,0,2h2a1,1,0,0,0,0-2Z"/><path class="cls-1" d="M11,13H9a1,1,0,0,0,0,2h2a1,1,0,0,0,0-2Z"/><path class="cls-1" d="M11,17H9a1,1,0,0,0,0,2h2a1,1,0,0,0,0-2Z"/><path class="cls-1" d="M6,9H5a1,1,0,0,0,0,2H6A1,1,0,0,0,6,9Z"/><path class="cls-1" d="M6,13H5a1,1,0,0,0,0,2H6a1,1,0,0,0,0-2Z"/><path class="cls-1" d="M6,17H5a1,1,0,0,0,0,2H6a1,1,0,0,0,0-2Z"/></g></svg>