<svg xmlns="http://www.w3.org/2000/svg" viewBox="0 0 24 24"><defs><style>.cls-1{fill:#0e1317;fill-rule:evenodd;}</style></defs><g id="Layer-187" data-name="Layer"><g id="Vrstva_196" data-name="Vrstva 196"><path class="cls-1" d="M12,1A11,11,0,1,0,23,12,11,11,0,0,0,12,1ZM3,12A9,9,0,0,1,5.5,5.78,9,9,0,0,1,8,12a9,9,0,0,1-2.5,6.22A9,9,0,0,1,3,12Zm9,9a8.87,8.87,0,0,1-5-1.5A11,11,0,0,0,10,12,11,11,0,0,0,7,4.5,9,9,0,0,1,17,4.5a11,11,0,0,0,0,15A8.87,8.87,0,0,1,12,21Zm6.5-2.78a9,9,0,0,1,0-12.44,9,9,0,0,1,0,12.44Z"/></g></g></svg>