<svg xmlns="http://www.w3.org/2000/svg" viewBox="0 0 24 24"><defs><style>.cls-1,.cls-2{fill:#0e1317;}.cls-1{fill-rule:evenodd;}</style></defs><g id="Layer-129" data-name="Layer"><g id="Vrstva_326" data-name="Vrstva 326"><path class="cls-1" d="M8,22v.5a.5.5,0,0,0,.5.5h1a.5.5,0,0,0,.5-.5V22h4v.5a.5.5,0,0,0,.5.5h1a.5.5,0,0,0,.5-.5V22a3,3,0,0,0,3-3V4a3,3,0,0,0-3-3H8A3,3,0,0,0,5,4V19A3,3,0,0,0,8,22Zm8-2H8a1,1,0,0,1-1-1V11H17v8A1,1,0,0,1,16,20ZM8,3h8a1,1,0,0,1,1,1V9H7V4A1,1,0,0,1,8,3Z"/><circle class="cls-2" cx="9.5" cy="13.5" r="1.5"/><circle class="cls-2" cx="9.5" cy="5.5" r="1.5"/></g></g></svg>