<svg xmlns="http://www.w3.org/2000/svg" viewBox="0 0 24 24"><defs><style>.cls-1{fill:#0e1317;fill-rule:evenodd;}</style></defs><g id="Layer-163" data-name="Layer"><g id="Vrstva_245" data-name="Vrstva 245"><path class="cls-1" d="M17.55,9H6.9a1.2,1.2,0,0,0-1.09,1.69l2.07,4.6A1.2,1.2,0,0,0,9,16h6.77a1.19,1.19,0,0,0,1.11-.76l1.82-4.6A1.2,1.2,0,0,0,17.55,9Zm-2.36,5H9.49L8.14,11h8.23Z"/><path class="cls-1" d="M20.7,1H3.3A1.2,1.2,0,0,0,2.21,2.69l2.07,4.6A1.2,1.2,0,0,0,5.37,8H18.89A1.19,1.19,0,0,0,20,7.24l1.82-4.6A1.2,1.2,0,0,0,20.7,1ZM18.34,6H5.89L4.54,3h15Z"/><path class="cls-1" d="M14.4,17H10.5a1.2,1.2,0,0,0-1.09,1.69L11,22.29a1.2,1.2,0,0,0,1.09.71H13a1.2,1.2,0,0,0,1.12-.76l1.42-3.6A1.2,1.2,0,0,0,14.4,17Zm-1.87,3.76L11.74,19h1.48Z"/></g></g></svg>