<svg xmlns="http://www.w3.org/2000/svg" viewBox="0 0 24 24"><defs><style>.cls-1{fill:#0e1317;}</style></defs><g id="Layer-60" data-name="Layer"><g id="Vrstva_168" data-name="Vrstva 168"><path class="cls-1" d="M20.8,5.89H19.51a2.18,2.18,0,0,0,.11-.44,2.89,2.89,0,0,0-4.74-2.64l-3.16,2.7L8.57,2.81A2.89,2.89,0,0,0,3.83,5.45a2.18,2.18,0,0,0,.11.44H3.2A1.2,1.2,0,0,0,2,7.09v3.6a1.2,1.2,0,0,0,1.2,1.2H4v7a3,3,0,0,0,3,3H17a3,3,0,0,0,3-3v-7h.8a1.2,1.2,0,0,0,1.2-1.2V7.09A1.2,1.2,0,0,0,20.8,5.89ZM16.18,4.33a.89.89,0,1,1,.58,1.56H14.35ZM5.8,5a.89.89,0,0,1,1.47-.67L9.1,5.89H6.69A.89.89,0,0,1,5.8,5ZM18,18.89a1,1,0,0,1-1,1H7a1,1,0,0,1-1-1v-7H18Zm2-9H4v-2H20Z"/></g></g></svg>