<svg xmlns="http://www.w3.org/2000/svg" viewBox="0 0 24 24"><defs><style>.cls-1{fill:#0e1317;fill-rule:evenodd;}</style></defs><g id="Layer-154" data-name="Layer"><g id="Vrstva_267" data-name="Vrstva 267"><path class="cls-1" d="M18.6,5.87,11.73,1.29a1.2,1.2,0,0,0-1.87,1V18.91a1,1,0,0,0,2,0V10.59L18.38,8A1.19,1.19,0,0,0,18.6,5.87ZM11.86,8.44V3.78l4.37,2.91Z"/><path class="cls-1" d="M7.6,18.64A1,1,0,0,0,8,17.27a1,1,0,0,0-1.36-.37,3,3,0,0,0-1.75,2.51,3.18,3.18,0,0,0,2,2.67,9.17,9.17,0,0,0,4,.83,9.18,9.18,0,0,0,4-.83,3.17,3.17,0,0,0,2-2.67,3,3,0,0,0-1.74-2.51,1,1,0,0,0-1.37.37,1,1,0,0,0,.38,1.37c.65.37.73.68.73.77s-.11.48-.91.88a7.13,7.13,0,0,1-3.09.62,7.05,7.05,0,0,1-3.08-.62c-.8-.4-.92-.77-.92-.88S7,19,7.6,18.64Z"/></g></g></svg>