<svg xmlns="http://www.w3.org/2000/svg" viewBox="0 0 24 24"><defs><style>.cls-1{fill:#090c1b;}</style></defs><g id="Layer-291" data-name="Layer"><path class="cls-1" d="M12,1a1,1,0,0,0-1,1V3H7A4,4,0,0,0,3,7V17a4,4,0,0,0,4,4h4v1a1,1,0,0,0,2,0V2A1,1,0,0,0,12,1ZM7,19a2,2,0,0,1-2-2V7A2,2,0,0,1,7,5h4V19Z"/><path class="cls-1" d="M17.31,19,17,19h-.5a1,1,0,0,0,0,2H17a4.21,4.21,0,0,0,.62-.05,1,1,0,1,0-.31-2Z"/><path class="cls-1" d="M21,6.38a1,1,0,1,0-2,.31A3,3,0,0,1,19,7v.5a1,1,0,0,0,2,0V7A4.21,4.21,0,0,0,21,6.38Z"/><path class="cls-1" d="M20,10.5a1,1,0,0,0-1,1v1a1,1,0,0,0,2,0v-1A1,1,0,0,0,20,10.5Z"/><path class="cls-1" d="M20,15.5a1,1,0,0,0-1,1V17a3,3,0,0,1,0,.31,1,1,0,1,0,2,.31A4.21,4.21,0,0,0,21,17v-.5A1,1,0,0,0,20,15.5Z"/><path class="cls-1" d="M17.62,3.05A4.21,4.21,0,0,0,17,3h-.5a1,1,0,0,0,0,2H17l.31,0a1,1,0,1,0,.31-2Z"/></g></svg>