<svg xmlns="http://www.w3.org/2000/svg" viewBox="0 0 24 24"><defs><style>.cls-1{fill:#0e1317;}</style></defs><g id="Layer-89" data-name="Layer"><g id="Vrstva_138" data-name="Vrstva 138"><path class="cls-1" d="M6,12H9v8A3,3,0,0,0,12.56,23,3.09,3.09,0,0,0,15,19.85V12h3a3,3,0,0,0,3-3V7a3,3,0,0,0-3-3H15a3,3,0,0,0-3.56-2.95A3.09,3.09,0,0,0,9,4H6A3,3,0,0,0,3,7V9A3,3,0,0,0,6,12Zm7,8a1,1,0,0,1-2,0V12h2ZM11.94,3a1,1,0,0,1,1,1h-2A1,1,0,0,1,11.94,3ZM5,7A1,1,0,0,1,6,6H18a1,1,0,0,1,1,1V9a1,1,0,0,1-1,1H6A1,1,0,0,1,5,9Z"/></g></g></svg>