<svg xmlns="http://www.w3.org/2000/svg" viewBox="0 0 24 24"><defs><style>.cls-1{fill:#0e1317;}</style></defs><g id="Layer-68" data-name="Layer"><g id="Vrstva_159" data-name="Vrstva 159"><path class="cls-1" d="M20,9H19a3.3,3.3,0,0,0-.64.07,7,7,0,0,0-12.72,0A3.3,3.3,0,0,0,5,9H4a3,3,0,0,0-3,3v4a3,3,0,0,0,3,3H5a3,3,0,0,0,3-3V12a3,3,0,0,0-.65-1.84,5,5,0,0,1,9.3,0A3,3,0,0,0,16,12v4a3,3,0,0,0,3,3h1a3,3,0,0,0,3-3V12A3,3,0,0,0,20,9ZM6,16a1,1,0,0,1-1,1H4a1,1,0,0,1-1-1V12a1,1,0,0,1,1-1H5a1,1,0,0,1,1,1Zm15,0a1,1,0,0,1-1,1H19a1,1,0,0,1-1-1V12a1,1,0,0,1,1-1h1a1,1,0,0,1,1,1Z"/></g></g></svg>