<svg xmlns="http://www.w3.org/2000/svg" viewBox="0 0 24 24"><g id="ic-medicine-heart-beat"><path d="M12,19.88h-.08a1,1,0,0,1-.63-.29L8.36,16.66l1.42-1.41L12,17.47l2.58-2.59A1,1,0,0,1,16,16.3l-3.29,3.29A1,1,0,0,1,12,19.88Zm-7.54-7.8a1,1,0,0,1-.88-.54,5.07,5.07,0,0,1,8.08-5.93L12,6l.34-.34a5.08,5.08,0,0,1,8.57,4.55,1,1,0,0,1-2-.38A3.07,3.07,0,0,0,13.76,7l-1,1.05a1,1,0,0,1-1.42,0L10.24,7a3.07,3.07,0,0,0-4.89,3.6A1,1,0,0,1,4.93,12,1.12,1.12,0,0,1,4.46,12.08Z"/><path d="M6,16H2a1,1,0,0,1,0-2H5.52l3.7-4.62A1,1,0,0,1,9.94,9a1,1,0,0,1,.77.29L13.41,12H21a1,1,0,0,1,0,2H13a1,1,0,0,1-.71-.29L10.08,11.5l-3.3,4.13A1,1,0,0,1,6,16Z"/></g></svg>