<svg xmlns="http://www.w3.org/2000/svg" viewBox="0 0 24 24"><defs><style>.cls-1{fill:#0e1317;fill-rule:evenodd;}</style></defs><g id="Layer-145" data-name="Layer"><g id="Vrstva_286" data-name="Vrstva 286"><path class="cls-1" d="M3,10a9,9,0,0,0,2.14,5.82L4,19a3,3,0,0,0,2.82,4H17.17A3,3,0,0,0,20,19l-1.13-3.17A9,9,0,1,0,3,10Zm6.18,1a3,3,0,0,0,5.64,0h4.1A7,7,0,0,1,5.08,11ZM11,10a1,1,0,1,1,1,1A1,1,0,0,1,11,10Zm6.17,11H6.83a1,1,0,0,1-.94-1.34l.85-2.37a8.94,8.94,0,0,0,10.52,0l.85,2.37A1,1,0,0,1,17.17,21ZM12,3a7,7,0,0,1,6.92,6h-4.1A3,3,0,0,0,9.18,9H5.08A7,7,0,0,1,12,3Z"/></g></g></svg>