<svg xmlns="http://www.w3.org/2000/svg" viewBox="0 0 24 24"><defs><style>.cls-1{fill:#0e1317;}</style></defs><g id="Layer-94" data-name="Layer"><path class="cls-1" d="M18.72,5.11A5.42,5.42,0,0,0,18,5V3a1,1,0,1,0-2,0V5H8V3.07a2.11,2.11,0,0,0,0-.35A1,1,0,0,0,6.82,2,1,1,0,0,0,6,3V5L5.78,5A3,3,0,0,0,3,8v4a3,3,0,0,0,3,3H11.5a2.51,2.51,0,0,1,2.39,1.74A4.44,4.44,0,0,1,14,18.06a1.75,1.75,0,0,1-.24.89A1.91,1.91,0,0,1,12,20a1.93,1.93,0,0,1-1.77-1.17,2.18,2.18,0,0,1-.18-1,1,1,0,0,0-.95-1,1,1,0,0,0-1,.9,4.12,4.12,0,0,0,0,.93,4,4,0,0,0,7.79.51A5.66,5.66,0,0,0,16,17.53a4.49,4.49,0,0,0-.7-2.43L15.25,15H18l.37,0A3,3,0,0,0,21,12V8A3,3,0,0,0,18.72,5.11ZM18,13H6a1,1,0,0,1-1-1V8A1,1,0,0,1,6,7h12a1,1,0,0,1,1,.65A1.09,1.09,0,0,1,19,8v4A1,1,0,0,1,18,13Z"/></g></svg>