<svg xmlns="http://www.w3.org/2000/svg" viewBox="0 0 24 24"><defs><style>.cls-1{fill:#0e1317;fill-rule:evenodd;}</style></defs><g id="Layer-221" data-name="Layer"><path class="cls-1" d="M4,13a3,3,0,0,1-3-3V6A3,3,0,0,1,4,3H8a3,3,0,0,1,3,3v4a3,3,0,0,1-3,3ZM3,10a1,1,0,0,0,1,1H8a1,1,0,0,0,1-1V6A1,1,0,0,0,8,5H4A1,1,0,0,0,3,6Z"/><path class="cls-1" d="M16,13a3,3,0,0,1-3-3V6a3,3,0,0,1,3-3h4a3,3,0,0,1,3,3v4a3,3,0,0,1-3,3Zm-1-3a1,1,0,0,0,1,1h4a1,1,0,0,0,1-1V6a1,1,0,0,0-1-1H16a1,1,0,0,0-1,1Z"/><path class="cls-1" d="M2,16a1,1,0,0,1,1-1H9a1,1,0,0,1,0,2H3A1,1,0,0,1,2,16Z"/><path class="cls-1" d="M2,20a1,1,0,0,1,1-1H7a1,1,0,0,1,0,2H3A1,1,0,0,1,2,20Z"/><path class="cls-1" d="M14,16a1,1,0,0,1,1-1h6a1,1,0,0,1,0,2H15A1,1,0,0,1,14,16Z"/><path class="cls-1" d="M14,20a1,1,0,0,1,1-1h4a1,1,0,0,1,0,2H15A1,1,0,0,1,14,20Z"/></g></svg>