<svg xmlns="http://www.w3.org/2000/svg" viewBox="0 0 24 24"><defs><style>.cls-1{fill:#0e1317;}</style></defs><g id="Layer-61" data-name="Layer"><g id="Vrstva_169" data-name="Vrstva 169"><path class="cls-1" d="M17.5,1H6.5a3,3,0,0,0-3,3V21.8a1.1,1.1,0,0,0,1.82.83l2.76-2.37,3.8,2.54a1.1,1.1,0,0,0,1.33-.08L16,20.33l2.68,2.3a1.1,1.1,0,0,0,1.82-.83V4A3,3,0,0,0,17.5,1Zm1,18.83-1.78-1.53a1.12,1.12,0,0,0-1.44,0l-2.86,2.45-3.8-2.54a1.11,1.11,0,0,0-1.33.08L5.5,19.84V4a1,1,0,0,1,1-1h11a1,1,0,0,1,1,1Z"/><path class="cls-1" d="M7.5,7h7a1,1,0,0,0,0-2h-7a1,1,0,0,0,0,2Z"/><path class="cls-1" d="M7.5,11h4a1,1,0,0,0,0-2h-4a1,1,0,1,0,0,2Z"/><path class="cls-1" d="M15.5,13h-8a1,1,0,1,0,0,2h8a1,1,0,0,0,0-2Z"/></g></g></svg>