<svg xmlns="http://www.w3.org/2000/svg" viewBox="0 0 24 24"><defs><style>.cls-1{fill:#0e1317;fill-rule:evenodd;}</style></defs><g id="Layer-175" data-name="Layer"><g id="Vrstva_225" data-name="Vrstva 225"><path class="cls-1" d="M8.17,3.74A4.11,4.11,0,0,0,5,7.81v5.37A3,3,0,0,0,3,16v4a3,3,0,0,0,6,0V16a3,3,0,0,0-2-2.82V7.66a2,2,0,0,1,2.65-1.9,2,2,0,0,1,1.35,2v7.92a4,4,0,0,0,4.83,3.92A4.11,4.11,0,0,0,19,15.51V10.82A3,3,0,0,0,21,8V4a3,3,0,0,0-6,0V8a3,3,0,0,0,2,2.82v4.84a2,2,0,0,1-2.65,1.9,2,2,0,0,1-1.35-2V7.66A4,4,0,0,0,8.17,3.74ZM7,20a1,1,0,0,1-2,0V16a1,1,0,0,1,2,0ZM17,4a1,1,0,0,1,2,0V8a1,1,0,0,1-2,0Z"/></g></g></svg>