<svg xmlns="http://www.w3.org/2000/svg" viewBox="0 0 24 24"><defs><style>.cls-1{fill:#0e1317;}</style></defs><g id="Layer-67" data-name="Layer"><g id="Vrstva_160" data-name="Vrstva 160"><path class="cls-1" d="M20,4H4A3,3,0,0,0,1,7V17a3,3,0,0,0,3,3H20a3,3,0,0,0,3-3V7A3,3,0,0,0,20,4Zm1,13a1,1,0,0,1-1,1H4a1,1,0,0,1-1-1V7A1,1,0,0,1,4,6H20a1,1,0,0,1,1,1Z"/><rect class="cls-1" x="7" y="14" width="10" height="2" rx="0.8"/><rect class="cls-1" x="4" y="14" width="2" height="2" rx="0.8"/><rect class="cls-1" x="4" y="11" width="4" height="2" rx="0.8"/><rect class="cls-1" x="4" y="8" width="3" height="2" rx="0.8"/><rect class="cls-1" x="8" y="8" width="2" height="2" rx="0.8"/><rect class="cls-1" x="11" y="8" width="2" height="2" rx="0.8"/><rect class="cls-1" x="14" y="8" width="2" height="2" rx="0.8"/><rect class="cls-1" x="17" y="8" width="3" height="2" rx="0.8"/><rect class="cls-1" x="18" y="14" width="2" height="2" rx="0.8"/><rect class="cls-1" x="18" y="11" width="2" height="2" rx="0.8"/><rect class="cls-1" x="15" y="11" width="2" height="2" rx="0.8"/><rect class="cls-1" x="12" y="11" width="2" height="2" rx="0.8"/><rect class="cls-1" x="9" y="11" width="2" height="2" rx="0.8"/></g></g></svg>