<svg xmlns="http://www.w3.org/2000/svg" viewBox="0 0 24 24"><defs><style>.cls-1{fill:#0e1317;fill-rule:evenodd;}</style></defs><g id="Layer-249" data-name="Layer"><path class="cls-1" d="M6,12a1,1,0,0,1,1-1h7a3,3,0,0,1,3,3v7a1,1,0,0,1-2,0V14a1,1,0,0,0-1-1H7A1,1,0,0,1,6,12Z"/><path class="cls-1" d="M16,3a1,1,0,0,1,1,1V21a1,1,0,0,1-2,0V4A1,1,0,0,1,16,3Z"/><path class="cls-1" d="M19.71,6.71a1,1,0,0,1-1.42,0L16,4.41l-2.29,2.3a1,1,0,0,1-1.42-1.42l2.65-2.64a1.49,1.49,0,0,1,2.12,0l2.65,2.64A1,1,0,0,1,19.71,6.71Z"/><path class="cls-1" d="M8.71,8.29a1,1,0,0,1,0,1.42L6.41,12l2.3,2.29a1,1,0,0,1-1.42,1.42L4.65,13.06a1.49,1.49,0,0,1,0-2.12L7.29,8.29A1,1,0,0,1,8.71,8.29Z"/></g></svg>