<svg xmlns="http://www.w3.org/2000/svg" viewBox="0 0 24 24"><defs><style>.cls-1{fill:#090c1b;fill-rule:evenodd;}</style></defs><g id="Layer-281" data-name="Layer"><path class="cls-1" d="M12,2a1,1,0,0,0-1,1V7a1,1,0,0,0,2,0V3A1,1,0,0,0,12,2Z"/><path class="cls-1" d="M12,16a1,1,0,0,0-1,1v4a1,1,0,0,0,2,0V17A1,1,0,0,0,12,16Z"/><path class="cls-1" d="M21,11H17a1,1,0,0,0,0,2h4a1,1,0,0,0,0-2Z"/><path class="cls-1" d="M8,12a1,1,0,0,0-1-1H3a1,1,0,0,0,0,2H7A1,1,0,0,0,8,12Z"/><path class="cls-1" d="M17,8.88l2.83-2.83a1,1,0,0,0,0-1.41,1,1,0,0,0-1.42,0L15.54,7.46a1,1,0,0,0,0,1.42A1,1,0,0,0,17,8.88Z"/><path class="cls-1" d="M8.46,14.54,5.64,17.36a1,1,0,0,0,0,1.42,1,1,0,0,0,1.41,0L9.88,16a1,1,0,1,0-1.42-1.41Z"/><path class="cls-1" d="M15.54,14.54A1,1,0,1,0,14.12,16L17,18.78a1,1,0,0,0,1.41,0,1,1,0,0,0,0-1.42Z"/><path class="cls-1" d="M7.05,8.88a1,1,0,0,0,1.41,0,1,1,0,0,0,0-1.42L5.64,4.64a1,1,0,0,0-1.42,0,1,1,0,0,0,0,1.41Z"/></g></svg>