<svg xmlns="http://www.w3.org/2000/svg" viewBox="0 0 24 24"><defs><style>.cls-1{fill:#0e1317;fill-rule:evenodd;}</style></defs><g id="Layer-237" data-name="Layer"><path class="cls-1" d="M21,8.18v-2A1.34,1.34,0,0,0,20.25,5,18.43,18.43,0,0,0,3.75,5,1.34,1.34,0,0,0,3,6.22v2A3,3,0,0,0,1,11v8a3,3,0,0,0,3,3H20a3,3,0,0,0,3-3V11A3,3,0,0,0,21,8.18ZM5,6.62a16.49,16.49,0,0,1,14,0V8H5ZM8,20V15h3v5Zm5,0V15h3v5Zm8-1a1,1,0,0,1-1,1H18V14.5A1.5,1.5,0,0,0,16.5,13h-9A1.5,1.5,0,0,0,6,14.5V20H4a1,1,0,0,1-1-1V11a1,1,0,0,1,1-1H20a1,1,0,0,1,1,1Z"/></g></svg>