<svg xmlns="http://www.w3.org/2000/svg" viewBox="0 0 24 24"><defs><style>.cls-1{fill:#0e1317;}</style></defs><g id="Layer-80" data-name="Layer"><g id="Vrstva_147" data-name="Vrstva 147"><path class="cls-1" d="M20,2.67H4a3,3,0,0,0-3,3v9a3,3,0,0,0,3,3H5.5l2.3,3.06a1.5,1.5,0,0,0,2.4,0l2.3-3.06H20a3,3,0,0,0,3-3v-9A3,3,0,0,0,20,2.67Zm1,12a1,1,0,0,1-1,1H11.5L9,19,6.5,15.67H4a1,1,0,0,1-1-1v-9a1,1,0,0,1,1-1H20a1,1,0,0,1,1,1Z"/><path class="cls-1" d="M6,8.67h5a1,1,0,0,0,0-2H6a1,1,0,0,0,0,2Z"/><path class="cls-1" d="M17,10.67H6a1,1,0,0,0,0,2H17a1,1,0,0,0,0-2Z"/></g></g></svg>