<svg xmlns="http://www.w3.org/2000/svg" viewBox="0 0 24 24"><defs><style>.cls-1{fill:#0e1317;}</style></defs><g id="Layer-95" data-name="Layer"><g id="Vrstva_132" data-name="Vrstva 132"><path class="cls-1" d="M3.12,21H21.5a1,1,0,0,0,0-2h-2V12.28A9.18,9.18,0,0,0,11.83,3.1,9,9,0,0,0,1.5,12v7.38A1.61,1.61,0,0,0,3.12,21Zm.38-8.73A7.18,7.18,0,0,1,9.62,5.05a7,7,0,0,1,7.88,7v7H3.5Z"/><path class="cls-1" d="M10.5,7.6a4,4,0,1,0,4,4A4,4,0,0,0,10.5,7.6Zm0,6a2,2,0,1,1,2-2A2,2,0,0,1,10.5,13.6Z"/><path class="cls-1" d="M21.5,17.6a1,1,0,0,0,1-1v-1a1,1,0,0,0-2,0v1A1,1,0,0,0,21.5,17.6Z"/></g></g></svg>