<svg xmlns="http://www.w3.org/2000/svg" viewBox="0 0 24 24"><defs><style>.cls-1{fill:#0e1317;fill-rule:evenodd;}</style></defs><g id="Layer-133" data-name="Layer"><g id="Vrstva_317" data-name="Vrstva 317"><path class="cls-1" d="M12,15a5,5,0,0,0,5-5V6A5,5,0,0,0,7,6v4A5,5,0,0,0,12,15ZM9,6a3,3,0,0,1,6,0v4a3,3,0,0,1-6,0Z"/><path class="cls-1" d="M11,18.93S11,19,11,19v3a1,1,0,0,0,2,0V19s0,0,0-.07A8,8,0,0,0,20,11V10a1,1,0,0,0-2,0v1A6,6,0,0,1,6,11V10a1,1,0,0,0-2,0v1A8,8,0,0,0,11,18.93Z"/></g></g></svg>