<svg xmlns="http://www.w3.org/2000/svg" viewBox="0 0 24 24"><defs><style>.cls-1,.cls-2{fill:#0e1317;}.cls-1{fill-rule:evenodd;}</style></defs><g id="Layer-122" data-name="Layer"><g id="Vrstva_335" data-name="Vrstva 335"><path class="cls-1" d="M20,3.5H4a3,3,0,0,0-3,3v10a3,3,0,0,0,3,3H5V20a.5.5,0,0,0,.5.5h1A.5.5,0,0,0,7,20v-.5H17V20a.5.5,0,0,0,.5.5h1A.5.5,0,0,0,19,20v-.5h1a3,3,0,0,0,3-3V6.5A3,3,0,0,0,20,3.5ZM4,17.5a1,1,0,0,1-1-1V6.5a1,1,0,0,1,1-1H14v12Zm17-1a1,1,0,0,1-1,1H16V5.5h4a1,1,0,0,1,1,1Z"/><circle class="cls-2" cx="18.5" cy="7.64" r="1.5"/><circle class="cls-2" cx="18.5" cy="11.64" r="1.5"/></g></g></svg>