<svg xmlns="http://www.w3.org/2000/svg" viewBox="0 0 24 24"><defs><style>.cls-1{fill:#0e1317;fill-rule:evenodd;}</style></defs><g id="Layer-224" data-name="Layer"><path class="cls-1" d="M4.2,4a3,3,0,0,1,3-3h9a3,3,0,0,1,3,3V20a3,3,0,0,1-3,3h-9a3,3,0,0,1-3-3Zm3-1a1,1,0,0,0-1,1V20a1,1,0,0,0,1,1h9a1,1,0,0,0,1-1V4a1,1,0,0,0-1-1Z"/><path class="cls-1" d="M13.8,14.83a1,1,0,0,1,.36,1.37l-.5.86a1,1,0,1,1-1.73-1l.5-.86A1,1,0,0,1,13.8,14.83Z"/><path class="cls-1" d="M11.1,7.5a1,1,0,0,1,.37,1.37l-.5.86a1,1,0,0,1-1.74-1l.5-.86A1,1,0,0,1,11.1,7.5Z"/><path class="cls-1" d="M13.7,9a1,1,0,0,1,.36,1.37l-3,5.19a1,1,0,0,1-1.36.37,1,1,0,0,1-.37-1.37l3-5.19A1,1,0,0,1,13.7,9Z"/></g></svg>