<svg xmlns="http://www.w3.org/2000/svg" viewBox="0 0 24 24"><defs><style>.cls-1{fill:#0e1317;fill-rule:evenodd;}</style></defs><g id="Layer-21" data-name="Layer"><g id="Vrstva_99" data-name="Vrstva 99"><path class="cls-1" d="M4,9a3,3,0,1,0,3,3A3,3,0,0,0,4,9Zm0,4a1,1,0,1,1,1-1A1,1,0,0,1,4,13Z"/><path class="cls-1" d="M12,9a3,3,0,1,0,3,3A3,3,0,0,0,12,9Zm0,4a1,1,0,1,1,1-1A1,1,0,0,1,12,13Z"/><path class="cls-1" d="M20,9a3,3,0,1,0,3,3A3,3,0,0,0,20,9Zm0,4a1,1,0,1,1,1-1A1,1,0,0,1,20,13Z"/></g></g></svg>