<svg xmlns="http://www.w3.org/2000/svg" viewBox="0 0 24 24"><defs><style>.cls-1{fill:#0e1317;fill-rule:evenodd;}</style></defs><g id="Layer-20" data-name="Layer"><g id="Vrstva_100" data-name="Vrstva 100"><path class="cls-1" d="M12,17a3,3,0,1,0,3,3A3,3,0,0,0,12,17Zm0,4a1,1,0,1,1,1-1A1,1,0,0,1,12,21Z"/><path class="cls-1" d="M12,9a3,3,0,1,0,3,3A3,3,0,0,0,12,9Zm0,4a1,1,0,1,1,1-1A1,1,0,0,1,12,13Z"/><path class="cls-1" d="M12,1a3,3,0,1,0,3,3A3,3,0,0,0,12,1Zm0,4a1,1,0,1,1,1-1A1,1,0,0,1,12,5Z"/></g></g></svg>