<svg xmlns="http://www.w3.org/2000/svg" viewBox="0 0 24 24"><defs><style>.cls-1{fill:#0e1317;fill-rule:evenodd;}</style></defs><g id="Layer-242" data-name="Layer"><path class="cls-1" d="M17.94,14.31A1.07,1.07,0,0,0,18,14V13a6,6,0,0,0-2-4.46V8a4,4,0,0,0-3-3.87A.5.5,0,0,0,13,4V2a1,1,0,0,0-2,0V4a.5.5,0,0,0,0,.13A4,4,0,0,0,8,8v.54A6,6,0,0,0,6,13v1a1.07,1.07,0,0,0,.06.31A6.92,6.92,0,0,0,5,18v3.9A1.1,1.1,0,0,0,6.1,23H17.9A1.1,1.1,0,0,0,19,21.9V18A6.92,6.92,0,0,0,17.94,14.31ZM12,9a4,4,0,0,1,3.92,3.2,7,7,0,0,0-7.84,0A4,4,0,0,1,12,9Zm0-3a2,2,0,0,1,1.87,1.3,6,6,0,0,0-3.74,0A2,2,0,0,1,12,6ZM11,21V18a1,1,0,0,1,2,0v3Zm6,0H15V18a3,3,0,0,0-6,0v3H7V18a5,5,0,0,1,10,0Z"/></g></svg>