<svg xmlns="http://www.w3.org/2000/svg" viewBox="0 0 24 24"><defs><style>.cls-1{fill:#0e1317;fill-rule:evenodd;}</style></defs><g id="Layer-31" data-name="Layer"><g id="ic-actions1-04"><path class="cls-1" d="M20,1H4A3,3,0,0,0,1,4V20a3,3,0,0,0,3,3H20a3,3,0,0,0,3-3V4A3,3,0,0,0,20,1Zm1,19a1,1,0,0,1-1,1H4a1,1,0,0,1-1-1V4A1,1,0,0,1,4,3H20a1,1,0,0,1,1,1Z"/><path class="cls-1" d="M16.94,8.27l-6.67,6.3L7.66,12.31a1,1,0,0,0-1.33,1.5l3,2.68a1.19,1.19,0,0,0,1.67.1l7.33-6.86a1,1,0,1,0-1.37-1.46Z"/></g></g></svg>