<svg xmlns="http://www.w3.org/2000/svg" viewBox="0 0 24 24"><defs><style>.cls-1{fill:#0e1317;fill-rule:evenodd;}</style></defs><g id="Layer-217" data-name="Layer"><path class="cls-1" d="M1,4A3,3,0,0,1,4,1H20a3,3,0,0,1,3,3V20a3,3,0,0,1-3,3H4a3,3,0,0,1-3-3ZM4,3A1,1,0,0,0,3,4V20a1,1,0,0,0,1,1H20a1,1,0,0,0,1-1V4a1,1,0,0,0-1-1Z"/><path class="cls-1" d="M1,4A3,3,0,0,1,4,1H20a3,3,0,0,1,3,3V8H1ZM4,3A1,1,0,0,0,3,4V6H21V4a1,1,0,0,0-1-1Z"/><path class="cls-1" d="M13,1h7a3,3,0,0,1,3,3V8H13Zm2,2V6h6V4a1,1,0,0,0-1-1Z"/><path class="cls-1" d="M11,23H4a3,3,0,0,1-3-3V16H11ZM9,21V18H3v2a1,1,0,0,0,1,1Z"/><path class="cls-1" d="M1,6H23v7H1ZM3,8v3H21V8Z"/><path class="cls-1" d="M1,11H23v7H1Zm2,2v3H21V13Z"/></g></svg>