<svg xmlns="http://www.w3.org/2000/svg" viewBox="0 0 24 24"><defs><style>.cls-1{fill:#0e1317;}</style></defs><g id="Layer-93" data-name="Layer"><g id="Vrstva_134" data-name="Vrstva 134"><path class="cls-1" d="M7.37,8.19a7.8,7.8,0,0,0,.93.32L11,21.21h0l1-5L10.43,8.91C10.94,9,11.46,9,12,9s1.06,0,1.57-.09L12,16.23l-1,5a1,1,0,0,0,2-.07L15.7,8.51a7.8,7.8,0,0,0,.93-.32,5.24,5.24,0,0,0,1.6-1A2.4,2.4,0,0,0,19,5.5a2.4,2.4,0,0,0-.77-1.69,5.24,5.24,0,0,0-1.6-1A12.29,12.29,0,0,0,12,2a12.29,12.29,0,0,0-4.63.81,5.24,5.24,0,0,0-1.6,1A2.4,2.4,0,0,0,5,5.5a2.4,2.4,0,0,0,.77,1.69A5.24,5.24,0,0,0,7.37,8.19ZM11,20.91a.28.28,0,0,0,0-.08v0l0-.11A1.07,1.07,0,0,0,11,21ZM7,5.44a.63.63,0,0,1,.15-.2,3.09,3.09,0,0,1,1-.58A10.23,10.23,0,0,1,12,4a10.23,10.23,0,0,1,3.86.66,3.09,3.09,0,0,1,1,.58.63.63,0,0,1,.15.2s0,0,0,.06,0,0,0,.06a.63.63,0,0,1-.15.2,3.09,3.09,0,0,1-1,.58,8.25,8.25,0,0,1-1.7.48l-.14,0v0A12.5,12.5,0,0,1,12,7a12.5,12.5,0,0,1-2-.16v0l-.14,0a8.25,8.25,0,0,1-1.7-.48,3.09,3.09,0,0,1-1-.58A.63.63,0,0,1,7,5.56s0,0,0-.06S7,5.48,7,5.44Z"/><polygon class="cls-1" points="11.03 21.23 11.03 21.23 11.03 21.23 11.03 21.23"/><path class="cls-1" d="M11,21.22Z"/><polygon class="cls-1" points="11.02 21.21 11.02 21.21 11.02 21.21 11.02 21.21"/></g></g></svg>