<svg xmlns="http://www.w3.org/2000/svg" viewBox="0 0 24 24"><defs><style>.cls-1{fill:#0e1317;fill-rule:evenodd;}</style></defs><g id="Layer-171" data-name="Layer"><g id="Vrstva_232" data-name="Vrstva 232"><path class="cls-1" d="M8,19.79a3,3,0,0,0,3-3,2.56,2.56,0,0,0-.07-.62V9.56l6-3V12a2.84,2.84,0,0,0-.93-.17,3,3,0,1,0,3,3,2.56,2.56,0,0,0-.07-.62V5.41A1.2,1.2,0,0,0,17.2,4.34L9.6,8.14a1.19,1.19,0,0,0-.67,1.07V14A2.84,2.84,0,0,0,8,13.79a3,3,0,0,0,0,6Zm8-4a1,1,0,1,1,.93-1.33v.47h0A1,1,0,0,1,16,15.79Zm-8,0a1,1,0,0,1,.93.67v.47H9a1,1,0,0,1-2-.14A1,1,0,0,1,8,15.79Z"/></g></g></svg>