<svg xmlns="http://www.w3.org/2000/svg" viewBox="0 0 24 24"><defs><style>.cls-1{fill:#0e1317;fill-rule:evenodd;}</style></defs><g id="Layer-146" data-name="Layer"><g id="Vrstva_285" data-name="Vrstva 285"><path class="cls-1" d="M4,16.5v4.62A1.38,1.38,0,0,0,5.38,22.5h9.24A1.38,1.38,0,0,0,16,21.12V16.5A6,6,0,0,0,14,12V10.5a3,3,0,0,0-3-3v-2h1a1,1,0,0,0,.17,0A3,3,0,0,0,15,7.5h2a3,3,0,0,0,0-6H15a3,3,0,0,0-2.83,2,1,1,0,0,0-.17,0H11v-1a1,1,0,0,0-2,0v5a3,3,0,0,0-3,3V12A6,6,0,0,0,4,16.5Zm11-13h2a1,1,0,0,1,0,2H15a1,1,0,0,1,0-2Zm-7,7a1,1,0,0,1,1-1h2a1,1,0,0,1,1,1v.35a5.89,5.89,0,0,0-4,0Zm-2,6a4,4,0,0,1,8,0v4H6Z"/></g></g></svg>