<svg xmlns="http://www.w3.org/2000/svg" viewBox="0 0 24 24"><defs><style>.cls-1{fill:#090c1b;}</style></defs><g id="Layer-288" data-name="Layer"><path class="cls-1" d="M19.5,8.5h-8a3,3,0,0,0-3,3v8a3,3,0,0,0,3,3h8a3,3,0,0,0,3-3v-8A3,3,0,0,0,19.5,8.5Zm1,11a1,1,0,0,1-1,1h-8a1,1,0,0,1-1-1v-8a1,1,0,0,1,1-1h8a1,1,0,0,1,1,1Z"/><path class="cls-1" d="M10,3.5h1a1,1,0,0,0,0-2H10a1,1,0,0,0,0,2Z"/><path class="cls-1" d="M15,3.5h.5l.31,0a1,1,0,1,0,.31-2,4.21,4.21,0,0,0-.62-.05H15a1,1,0,0,0,0,2Z"/><path class="cls-1" d="M17.5,5.9a1,1,0,0,0,2,0V5.5a4.21,4.21,0,0,0-.05-.62,1,1,0,1,0-2,.31,3,3,0,0,1,0,.31Z"/><path class="cls-1" d="M2.5,12a1,1,0,0,0,1-1V10a1,1,0,0,0-2,0v1A1,1,0,0,0,2.5,12Z"/><path class="cls-1" d="M5.9,17.5H5.5l-.31,0a1,1,0,1,0-.31,2,4.21,4.21,0,0,0,.62.05h.4a1,1,0,0,0,0-2Z"/><path class="cls-1" d="M3.5,15a1,1,0,0,0-2,0v.5a4.21,4.21,0,0,0,.05.62,1,1,0,1,0,2-.31,3,3,0,0,1,0-.31Z"/><path class="cls-1" d="M6,1.5H5.5a4.21,4.21,0,0,0-.62.05,1,1,0,1,0,.31,2l.31,0H6a1,1,0,0,0,0-2Z"/><path class="cls-1" d="M2.69,4a1,1,0,0,0-1.14.84,4.21,4.21,0,0,0-.05.62V6a1,1,0,0,0,2,0V5.5a3,3,0,0,1,0-.31A1,1,0,0,0,2.69,4Z"/></g></svg>