<svg xmlns="http://www.w3.org/2000/svg" viewBox="0 0 24 24"><defs><style>.cls-1{fill:#0e1317;}</style></defs><g id="Layer-82" data-name="Layer"><g id="Vrstva_145" data-name="Vrstva 145"><circle class="cls-1" cx="12" cy="15.43" r="2"/><path class="cls-1" d="M18.42,12A3,3,0,0,0,15.61,10H15a1,1,0,0,0-1-1H10a1,1,0,0,0-1,1H8.39A3,3,0,0,0,5.58,12l-1.5,4A3,3,0,0,0,6.89,20H17.11A3,3,0,0,0,19.92,16ZM17.11,18H6.89A1,1,0,0,1,6,16.65l1.5-4A1,1,0,0,1,8.39,12h7.22a1,1,0,0,1,.94.65l1.5,4A1,1,0,0,1,17.11,18Z"/><path class="cls-1" d="M21.39,5.76A27.93,27.93,0,0,0,12,4,28,28,0,0,0,2.62,5.75a1,1,0,0,0-.62.9V8a1.92,1.92,0,0,0,1.82,2h.35A1.92,1.92,0,0,0,6,8V6.7A26.29,26.29,0,0,1,11.5,6a26.24,26.24,0,0,1,5.5.65V8a1.92,1.92,0,0,0,1.83,2h1.35A1.92,1.92,0,0,0,22,8V6.65A.94.94,0,0,0,21.39,5.76Z"/></g></g></svg>