<svg xmlns="http://www.w3.org/2000/svg" viewBox="0 0 24 24"><defs><style>.cls-1{fill:#0e1317;}</style></defs><g id="Layer-87" data-name="Layer"><g id="Vrstva_140" data-name="Vrstva 140"><path class="cls-1" d="M13.7,22.92A3,3,0,0,0,17,22.31l.75-.75a3.64,3.64,0,0,0,.11-5.14l-.55-.55a3.62,3.62,0,0,0-4.74-.25,17.22,17.22,0,0,1-2.09-1.74,18.17,18.17,0,0,1-1.76-2.07,3.59,3.59,0,0,0-.22-4.75L8,6.51a3.62,3.62,0,0,0-5.14.11l-.75.75a2.91,2.91,0,0,0-.61,3.3,25.74,25.74,0,0,0,5,7.25A26,26,0,0,0,13.7,22.92ZM3.88,11.06c-.26-.5-.46-.91-.6-1.22a.93.93,0,0,1,.2-1.06L4.23,8a1.64,1.64,0,0,1,2.31-.11l.55.55A1.64,1.64,0,0,1,7,10.78l-.81.82a21.93,21.93,0,0,0,2.91,3.7,22.6,22.6,0,0,0,3.72,2.88l.79-.79a1.64,1.64,0,0,1,2.31-.11l.56.55a1.65,1.65,0,0,1-.11,2.31l-.75.75a.94.94,0,0,1-1.06.21c-.31-.14-.73-.35-1.22-.61s-.92-.51-1.45-.83a23,23,0,0,1-4-3.15,22.35,22.35,0,0,1-3.13-4C4.4,12,4.12,11.49,3.88,11.06Z"/><path class="cls-1" d="M12.81.82a10,10,0,0,0-5.74,1.8A.94.94,0,0,0,7,4.07a1.13,1.13,0,0,0,1.38.08A8,8,0,0,1,19.7,14.88a1.11,1.11,0,0,0,.15,1.37.93.93,0,0,0,1.44-.14A10,10,0,0,0,12.81.82Z"/><path class="cls-1" d="M16,11.14H13V6a1,1,0,0,0-2,0v6s0,.05,0,.07,0,0,0,.07a1,1,0,0,0,1,1h4a1,1,0,0,0,0-2Z"/></g></g></svg>