<svg xmlns="http://www.w3.org/2000/svg" viewBox="0 0 24 24"><defs><style>.cls-1{fill:#0e1317;}</style></defs><g id="Layer-86" data-name="Layer"><g id="Vrstva_141" data-name="Vrstva 141"><path class="cls-1" d="M4.51,20.07a3.84,3.84,0,0,0,5.4.26l.58-.58a3.79,3.79,0,0,0-.05-5.18,16.39,16.39,0,0,1,1.85-2.28,17.53,17.53,0,0,1,2.26-1.87,3.79,3.79,0,0,0,5.2.07l.58-.58a3.84,3.84,0,0,0-.26-5.4l-1-1a3,3,0,0,0-3.2-.65A24.83,24.83,0,0,0,8.05,8.05,24.83,24.83,0,0,0,2.89,15.9a3,3,0,0,0,.65,3.2Zm.23-3.41c.15-.36.37-.87.67-1.48.1-.2.22-.41.34-.64A22.13,22.13,0,0,1,9.46,9.46a21.39,21.39,0,0,1,2.68-2.23c.56-.4,1.12-.75,1.64-1.06s1-.54,1.4-.76c.61-.3,1.12-.52,1.48-.67a.93.93,0,0,1,1,.21l1,1a1.84,1.84,0,0,1,.25,2.57l-.58.58a1.84,1.84,0,0,1-2.57-.26l-.95-1c-.49.29-1,.62-1.5,1a17.79,17.79,0,0,0-2.43,2,21,21,0,0,0-3,4l.92.92a1.84,1.84,0,0,1,.26,2.57l-.58.58a1.84,1.84,0,0,1-2.57-.25l-1-1A.93.93,0,0,1,4.74,16.66Z"/></g></g></svg>