<svg xmlns="http://www.w3.org/2000/svg" viewBox="0 0 24 24"><defs><style>.cls-1{fill:#0e1317;fill-rule:evenodd;}</style></defs><g id="Layer-210" data-name="Layer"><path class="cls-1" d="M12,4a3,3,0,0,1,3-3h4a3,3,0,0,1,3,3V8a3,3,0,0,1-3,3H15a3,3,0,0,1-3-3Zm3-1a1,1,0,0,0-1,1V8a1,1,0,0,0,1,1h4a1,1,0,0,0,1-1V4a1,1,0,0,0-1-1Z"/><path class="cls-1" d="M12,16a3,3,0,0,1,3-3h4a3,3,0,0,1,3,3v4a3,3,0,0,1-3,3H15a3,3,0,0,1-3-3Zm3-1a1,1,0,0,0-1,1v4a1,1,0,0,0,1,1h4a1,1,0,0,0,1-1V16a1,1,0,0,0-1-1Z"/><path class="cls-1" d="M2,4A1,1,0,0,1,3,3H9A1,1,0,0,1,9,5H3A1,1,0,0,1,2,4Z"/><path class="cls-1" d="M4,8A1,1,0,0,1,5,7H9A1,1,0,0,1,9,9H5A1,1,0,0,1,4,8Z"/><path class="cls-1" d="M2,16a1,1,0,0,1,1-1H9a1,1,0,0,1,0,2H3A1,1,0,0,1,2,16Z"/><path class="cls-1" d="M4,20a1,1,0,0,1,1-1H9a1,1,0,0,1,0,2H5A1,1,0,0,1,4,20Z"/></g></svg>