<svg xmlns="http://www.w3.org/2000/svg" viewBox="0 0 24 24"><defs><style>.cls-1{fill:#0e1317;fill-rule:evenodd;}</style></defs><g id="Layer-219" data-name="Layer"><path class="cls-1" d="M2,4A3,3,0,0,1,5,1H9a3,3,0,0,1,3,3V8a3,3,0,0,1-3,3H5A3,3,0,0,1,2,8ZM5,3A1,1,0,0,0,4,4V8A1,1,0,0,0,5,9H9a1,1,0,0,0,1-1V4A1,1,0,0,0,9,3Z"/><path class="cls-1" d="M14,4a1,1,0,0,1,1-1h6a1,1,0,0,1,0,2H15A1,1,0,0,1,14,4Z"/><path class="cls-1" d="M14,8a1,1,0,0,1,1-1h4a1,1,0,0,1,0,2H15A1,1,0,0,1,14,8Z"/><path class="cls-1" d="M2,16a3,3,0,0,1,3-3H9a3,3,0,0,1,3,3v4a3,3,0,0,1-3,3H5a3,3,0,0,1-3-3Zm3-1a1,1,0,0,0-1,1v4a1,1,0,0,0,1,1H9a1,1,0,0,0,1-1V16a1,1,0,0,0-1-1Z"/><path class="cls-1" d="M14,16a1,1,0,0,1,1-1h6a1,1,0,0,1,0,2H15A1,1,0,0,1,14,16Z"/><path class="cls-1" d="M14,20a1,1,0,0,1,1-1h4a1,1,0,0,1,0,2H15A1,1,0,0,1,14,20Z"/></g></svg>