<svg xmlns="http://www.w3.org/2000/svg" viewBox="0 0 24 24"><defs><style>.cls-1{fill:#0e1317;fill-rule:evenodd;}</style></defs><g id="Layer-273" data-name="Layer"><path class="cls-1" d="M3.55,17.83l2.25-1.5a3.09,3.09,0,0,1,3.4,0,5,5,0,0,0,5.6,0,3.09,3.09,0,0,1,3.4,0l2.25,1.5a1,1,0,0,0,1.1-1.66l-2.25-1.5a5,5,0,0,0-5.6,0,3.09,3.09,0,0,1-3.4,0,5,5,0,0,0-5.6,0l-2.25,1.5a1,1,0,0,0,1.1,1.66Z"/><path class="cls-1" d="M19.3,18.67a5,5,0,0,0-5.6,0,3.09,3.09,0,0,1-3.4,0,5,5,0,0,0-5.6,0l-2.25,1.5a1,1,0,0,0,1.1,1.66l2.25-1.5a3.09,3.09,0,0,1,3.4,0,5,5,0,0,0,5.6,0,3.09,3.09,0,0,1,3.4,0l2.25,1.5a1,1,0,0,0,1.1-1.66Z"/><path class="cls-1" d="M8,4v8a1,1,0,0,0,2,0V11h4v1a1,1,0,0,0,2,0V4a1,1,0,0,0,0-2H14a1,1,0,0,0,0,2V5H10V4a1,1,0,0,0,0-2H8A1,1,0,0,0,8,4Zm6,3V9H10V7Z"/></g></svg>