<svg xmlns="http://www.w3.org/2000/svg" viewBox="0 0 24 24"><defs><style>.cls-1{fill:#0e1317;fill-rule:evenodd;}</style></defs><g id="Layer-233" data-name="Layer"><path class="cls-1" d="M12,1A10,10,0,0,0,2,11v.76a7.24,7.24,0,0,0,4.63,6.75L5.5,20.46a1,1,0,0,0,.37,1.37,1,1,0,0,0,1.36-.37L8.67,19a5.44,5.44,0,0,0,.57,0h5.52a7,7,0,0,0,.79-.05L17,21.46a1,1,0,1,0,1.73-1l-1.17-2A7.25,7.25,0,0,0,22,11.76V11A10,10,0,0,0,12,1Zm8,10.76A5.25,5.25,0,0,1,14.76,17H9.24A5.25,5.25,0,0,1,4,11.76V11a8,8,0,0,1,16,0Z"/><path class="cls-1" d="M16.38,11.22l-1.26,1a5,5,0,0,1-6.24,0l-1.26-1a1,1,0,0,0-1.24,1.56l1.25,1a7,7,0,0,0,8.74,0l1.25-1a1,1,0,1,0-1.24-1.56Z"/></g></svg>