<svg xmlns="http://www.w3.org/2000/svg" viewBox="0 0 24 24"><defs><style>.cls-1{fill:#0e1317;}</style></defs><g id="Layer-114" data-name="Layer"><path class="cls-1" d="M12,1A11,11,0,1,0,23,12,11,11,0,0,0,12,1Zm0,20a9,9,0,1,1,9-9A9,9,0,0,1,12,21Z"/><path class="cls-1" d="M15.35,14.43a1,1,0,0,0-1.26.52,2.2,2.2,0,0,1-2,1.41h-.26a2.2,2.2,0,0,1-2-1.41,1,1,0,0,0-1.26-.52,1,1,0,0,0-.59,1.28,4.08,4.08,0,0,0,3.83,2.65h.22a4.08,4.08,0,0,0,3.83-2.65A1,1,0,0,0,15.35,14.43Z"/><circle class="cls-1" cx="8.5" cy="9.5" r="1.5"/><circle class="cls-1" cx="15.5" cy="9.5" r="1.5"/></g></svg>