<svg xmlns="http://www.w3.org/2000/svg" viewBox="0 0 24 24"><defs><style>.cls-1{fill:#090c1b;fill-rule:evenodd;}</style></defs><g id="Layer-284" data-name="Layer"><path class="cls-1" d="M21,12.06a1,1,0,0,0-1,1v4a1,1,0,0,1-1,1H5a1,1,0,0,1-1-1v-8a1,1,0,0,1,1-1h5.5a1,1,0,0,0,0-2H5a3,3,0,0,0-3,3v8a3,3,0,0,0,3,3H19a3,3,0,0,0,3-3v-4A1,1,0,0,0,21,12.06Z"/><path class="cls-1" d="M15.17,9.89a1,1,0,0,0,1.42,0L18,8.47l1.41,1.42a1,1,0,0,0,1.42-1.42L19.41,7.06l1.42-1.41a1,1,0,0,0-1.42-1.42L18,5.65,16.59,4.23a1,1,0,1,0-1.42,1.42l1.42,1.41L15.17,8.47A1,1,0,0,0,15.17,9.89Z"/></g></svg>