<svg xmlns="http://www.w3.org/2000/svg" viewBox="0 0 24 24"><defs><style>.cls-1{fill:#090c1b;fill-rule:evenodd;}</style></defs><g id="Layer-286" data-name="Layer"><path class="cls-1" d="M17.94,17.11a1,1,0,0,0-1,1V19l-3.72-3.1a2,2,0,0,0-2.56,0L6.94,19V5.11a1,1,0,0,1,1-1h8a1,1,0,0,1,1,1v1a1,1,0,0,0,2,0v-1a3,3,0,0,0-3-3h-8a3,3,0,0,0-3,3V20.69a1.2,1.2,0,0,0,2,.92l5-4.2,5,4.2a1.2,1.2,0,0,0,2-.92V18.11A1,1,0,0,0,17.94,17.11Z"/><path class="cls-1" d="M20.77,13.53l-1.42-1.42,1.42-1.41a1,1,0,1,0-1.42-1.42L17.94,10.7,16.53,9.28a1,1,0,1,0-1.42,1.42l1.42,1.41-1.42,1.42a1,1,0,0,0,0,1.41,1,1,0,0,0,1.42,0l1.41-1.41,1.41,1.41a1,1,0,0,0,1.42,0A1,1,0,0,0,20.77,13.53Z"/></g></svg>