<svg xmlns="http://www.w3.org/2000/svg" viewBox="0 0 24 24"><g id="ic-medicine-ribbon"><path d="M13.3,13.88l5.12-6.14s0-.08.07-.12.07-.12.1-.19a1.13,1.13,0,0,0,0-.18.65.65,0,0,0,0-.19.78.78,0,0,0,0-.21s0-.09,0-.13,0,0,0-.06l0,0A7,7,0,0,0,12,2.33a7,7,0,0,0-6.53,4.3l0,0s0,0,0,.06,0,.09,0,.13a.78.78,0,0,0,0,.21.65.65,0,0,0,0,.19,1.13,1.13,0,0,0,0,.18c0,.07.07.13.1.19s0,.08.07.12l5.12,6.14L5.58,20a1,1,0,0,0,.77,1.64,1,1,0,0,0,.77-.36L12,15.45l4.88,5.86a1,1,0,0,0,.77.36A1,1,0,0,0,18.42,20ZM7.54,7a5.09,5.09,0,0,1,8.92,0L12,12.32Z"/></g></svg>