<svg xmlns="http://www.w3.org/2000/svg" viewBox="0 0 24 24"><defs><style>.cls-1{fill:#0e1317;fill-rule:evenodd;}</style></defs><g id="Layer-253" data-name="Layer"><path class="cls-1" d="M18,12a1,1,0,0,0-1-1H10a3,3,0,0,0-3,3v7a1,1,0,0,0,2,0V14a1,1,0,0,1,1-1h7A1,1,0,0,0,18,12Z"/><path class="cls-1" d="M8,3A1,1,0,0,1,9,4V21a1,1,0,0,1-2,0V4A1,1,0,0,1,8,3Z"/><path class="cls-1" d="M11.71,6.71a1,1,0,0,1-1.42,0L8,4.41,5.71,6.71A1,1,0,0,1,4.29,5.29L6.94,2.65a1.49,1.49,0,0,1,2.12,0l2.65,2.64A1,1,0,0,1,11.71,6.71Z"/><path class="cls-1" d="M15.29,15.71a1,1,0,0,1,0-1.42L17.59,12l-2.3-2.29a1,1,0,0,1,1.42-1.42l2.64,2.65a1.49,1.49,0,0,1,0,2.12l-2.64,2.65A1,1,0,0,1,15.29,15.71Z"/></g></svg>