<svg xmlns="http://www.w3.org/2000/svg" viewBox="0 0 24 24"><defs><style>.cls-1{fill:#0e1317;fill-rule:evenodd;}</style></defs><g id="Layer-213" data-name="Layer"><path class="cls-1" d="M1,4A3,3,0,0,1,4,1H20a3,3,0,0,1,3,3V20a3,3,0,0,1-3,3H4a3,3,0,0,1-3-3ZM4,3A1,1,0,0,0,3,4V20a1,1,0,0,0,1,1H20a1,1,0,0,0,1-1V4a1,1,0,0,0-1-1Z"/><path class="cls-1" d="M1,4A3,3,0,0,1,4,1H20a3,3,0,0,1,3,3v7H1ZM4,3A1,1,0,0,0,3,4V9H21V4a1,1,0,0,0-1-1Z"/><path class="cls-1" d="M20,23a3,3,0,0,0,3-3V9H13V23Zm1-3a1,1,0,0,1-1,1H15V11h6Z"/></g></svg>