<svg xmlns="http://www.w3.org/2000/svg" viewBox="0 0 24 24"><defs><style>.cls-1{fill:#0e1317;fill-rule:evenodd;}</style></defs><g id="Layer-252" data-name="Layer"><path class="cls-1" d="M4,12a1,1,0,0,1,1-1h5a3,3,0,0,1,3,3v7a1,1,0,0,1-2,0V14a1,1,0,0,0-1-1H5A1,1,0,0,1,4,12Z"/><path class="cls-1" d="M20,12a1,1,0,0,0-1-1H14a3,3,0,0,0-3,3v7a1,1,0,0,0,2,0V14a1,1,0,0,1,1-1h5A1,1,0,0,0,20,12Z"/><path class="cls-1" d="M12,3a1,1,0,0,1,1,1V21a1,1,0,0,1-2,0V4A1,1,0,0,1,12,3Z"/><path class="cls-1" d="M7.71,8.29a1,1,0,0,1,0,1.42L5.41,12l2.3,2.29a1,1,0,1,1-1.42,1.42L3.65,13.06a1.49,1.49,0,0,1,0-2.12L6.29,8.29A1,1,0,0,1,7.71,8.29Z"/><path class="cls-1" d="M15.71,6.71a1,1,0,0,1-1.42,0L12,4.41,9.71,6.71A1,1,0,0,1,8.29,5.29l2.65-2.64a1.49,1.49,0,0,1,2.12,0l2.65,2.64A1,1,0,0,1,15.71,6.71Z"/><path class="cls-1" d="M16.29,15.71a1,1,0,0,1,0-1.42L18.59,12l-2.3-2.29a1,1,0,0,1,1.42-1.42l2.64,2.65a1.49,1.49,0,0,1,0,2.12l-2.64,2.65A1,1,0,0,1,16.29,15.71Z"/></g></svg>