<svg xmlns="http://www.w3.org/2000/svg" viewBox="0 0 24 24"><defs><style>.cls-1{fill:#0e1317;fill-rule:evenodd;}</style></defs><g id="Layer-251" data-name="Layer"><path class="cls-1" d="M4,6A1,1,0,0,1,5,5h5a3,3,0,0,1,3,3V21a1,1,0,0,1-2,0V8a1,1,0,0,0-1-1H5A1,1,0,0,1,4,6Z"/><path class="cls-1" d="M20,6a1,1,0,0,0-1-1H14a3,3,0,0,0-3,3V21a1,1,0,0,0,2,0V8a1,1,0,0,1,1-1h5A1,1,0,0,0,20,6Z"/><path class="cls-1" d="M7.71,2.29a1,1,0,0,1,0,1.42L5.41,6l2.3,2.29A1,1,0,1,1,6.29,9.71L3.65,7.06a1.49,1.49,0,0,1,0-2.12L6.29,2.29A1,1,0,0,1,7.71,2.29Z"/><path class="cls-1" d="M16.29,9.71a1,1,0,0,1,0-1.42L18.59,6l-2.3-2.29a1,1,0,0,1,1.42-1.42l2.64,2.65a1.49,1.49,0,0,1,0,2.12L17.71,9.71A1,1,0,0,1,16.29,9.71Z"/></g></svg>