<svg xmlns="http://www.w3.org/2000/svg" viewBox="0 0 24 24"><defs><style>.cls-1{fill:#0e1317;fill-rule:evenodd;}</style></defs><g id="Layer-153" data-name="Layer"><g id="Vrstva_269" data-name="Vrstva 269"><path class="cls-1" d="M22.42,13a2,2,0,0,0,0-2A12.06,12.06,0,0,0,1.58,11a2,2,0,0,0,0,2A12.06,12.06,0,0,0,22.42,13ZM3.76,12.67H6.07v2.41A10,10,0,0,1,3.76,12.67ZM8.07,16.2V12.67h1V14a1,1,0,0,0,2,0V12.67h2V14a1,1,0,0,0,2,0V12.67h1v3.46A10.24,10.24,0,0,1,8.07,16.2Zm10-1.23v-2.3h2.17A9.93,9.93,0,0,1,18.07,15Zm1.69-4.3H18.07V9A10.05,10.05,0,0,1,19.76,10.67Zm-3.69-2.8v2.8h-1V10a1,1,0,0,0-2,0v.67h-2V10a1,1,0,0,0-2,0v.67h-1V7.8A10.24,10.24,0,0,1,16.07,7.87Zm-10,1v1.75H4.24A9.74,9.74,0,0,1,6.07,8.92Z"/></g></g></svg>