<svg xmlns="http://www.w3.org/2000/svg" viewBox="0 0 24 24"><defs><style>.cls-1{fill:#0e1317;}</style></defs><g id="Layer-91" data-name="Layer"><g id="Vrstva_136" data-name="Vrstva 136"><path class="cls-1" d="M4.93,20.49a3,3,0,0,0,4.24,0L20.49,9.17a3,3,0,0,0,0-4.24L19.07,3.51a3,3,0,0,0-4.24,0L3.51,14.83a3,3,0,0,0,0,4.24Zm0-4.25L16.24,4.93a1,1,0,0,1,1.42,0l1.41,1.41a1,1,0,0,1,0,1.42l-.71.7h0l-.7-.7a1,1,0,0,0-1.42,0,1,1,0,0,0,0,1.41l.71.71-1.41,1.41h0l-.71-.7a1,1,0,0,0-1.42,0,1,1,0,0,0,0,1.41l.71.71h0l-1.41,1.41h0L12,13.41a1,1,0,0,0-1.41,0,1,1,0,0,0,0,1.42l.7.71h0L9.88,17h0l-.71-.71a1,1,0,0,0-1.41,0,1,1,0,0,0,0,1.42l.7.7-.7.71a1,1,0,0,1-1.42,0L4.93,17.66A1,1,0,0,1,4.93,16.24Z"/></g></g></svg>