<svg xmlns="http://www.w3.org/2000/svg" viewBox="0 0 24 24"><defs><style>.cls-1,.cls-2{fill:#0e1317;}.cls-1{fill-rule:evenodd;}</style></defs><g id="Layer-2" data-name="Layer"><path class="cls-1" d="M12,1A11,11,0,1,0,23,12,11,11,0,0,0,12,1Zm0,20a9,9,0,1,1,9-9A9,9,0,0,1,12,21Z"/><path class="cls-1" d="M12.11,14.36h-.22A4.09,4.09,0,0,0,8.06,17a1,1,0,0,0,1.85.76,2.21,2.21,0,0,1,2-1.41h.22a2.2,2.2,0,0,1,2,1.41A1,1,0,0,0,15.94,17,4.09,4.09,0,0,0,12.11,14.36Z"/><circle class="cls-2" cx="8.5" cy="9.5" r="1.5"/><circle class="cls-2" cx="15.5" cy="9.5" r="1.5"/></g></svg>