<svg xmlns="http://www.w3.org/2000/svg" viewBox="0 0 24 24"><defs><style>.cls-1,.cls-2{fill:#0e1317;}.cls-1{fill-rule:evenodd;}</style></defs><g id="Layer-142" data-name="Layer"><g id="Vrstva_295" data-name="Vrstva 295"><path class="cls-1" d="M20,1H4A3,3,0,0,0,1,4V18a3,3,0,0,0,3,3H6v1a1,1,0,0,0,2,0V21h8v1a1,1,0,0,0,2,0V21h2a3,3,0,0,0,3-3V4A3,3,0,0,0,20,1Zm1,17a1,1,0,0,1-1,1H4a1,1,0,0,1-1-1V4A1,1,0,0,1,4,3H20a1,1,0,0,1,1,1Z"/><circle class="cls-2" cx="12.35" cy="11" r="2"/><path class="cls-1" d="M17.24,14.47a6,6,0,0,0,0-6.94l1.11-1.12A1,1,0,1,0,16.94,5L15.82,6.11a6,6,0,0,0-6.94,0L7.76,5A1,1,0,0,0,6.35,6.41L7.46,7.53a6,6,0,0,0,0,6.94L6.35,15.59A1,1,0,1,0,7.76,17l1.12-1.11a6,6,0,0,0,6.94,0L16.94,17a1,1,0,1,0,1.41-1.41ZM8.35,11a4,4,0,1,1,4,4A4,4,0,0,1,8.35,11Z"/></g></g></svg>