<svg xmlns="http://www.w3.org/2000/svg" viewBox="0 0 24 24"><defs><style>.cls-1{fill:#0e1317;fill-rule:evenodd;}</style></defs><g id="Layer-138" data-name="Layer"><g id="Vrstva_302" data-name="Vrstva 302"><path class="cls-1" d="M5.53,18.77a34.31,34.31,0,0,0,4.85,3.81,2.81,2.81,0,0,0,3.15,0,35.72,35.72,0,0,0,4.58-3.86,13.94,13.94,0,0,0,3.82-6.06,1,1,0,0,0-.75-1.2,1,1,0,0,0-1.2.74,12.07,12.07,0,0,1-3.29,5.12,33,33,0,0,1-4.32,3.62.78.78,0,0,1-.89,0,32.24,32.24,0,0,1-4.57-3.59,11.68,11.68,0,0,1-3.49-5.17A17,17,0,0,1,3.2,8.32c0-.88.09-1.7.15-2.31.38,0,.85.08,1.35.1a9.79,9.79,0,0,0,3-.27,10,10,0,0,0,2.94-1.58c.5-.37.94-.73,1.28-1,.34.29.78.66,1.28,1a9.68,9.68,0,0,0,3,1.58,1,1,0,0,0,.53-1.93,7.79,7.79,0,0,1-2.3-1.26,17.67,17.67,0,0,1-1.64-1.37,1.2,1.2,0,0,0-1.65,0A19.89,19.89,0,0,1,9.49,2.65,8.16,8.16,0,0,1,7.17,3.92a7.77,7.77,0,0,1-2.4.19,18.69,18.69,0,0,1-2-.18A1.2,1.2,0,0,0,1.43,5c-.05.5-.18,1.81-.22,3.28a17.64,17.64,0,0,0,.27,4.36A13.63,13.63,0,0,0,5.53,18.77Z"/><path class="cls-1" d="M11.85,8.19A1,1,0,0,0,10.52,9.7l3,2.67a1.19,1.19,0,0,0,1.66.11L22.5,5.61a1,1,0,0,0-1.37-1.46l-6.68,6.3Z"/></g></g></svg>