<svg xmlns="http://www.w3.org/2000/svg" viewBox="0 0 24 24"><defs><style>.cls-1{fill:#0e1317;fill-rule:evenodd;}</style></defs><g id="Layer-280" data-name="Layer"><path class="cls-1" d="M21.87,8.34l-8-6.4a3,3,0,0,0-3.74,0l-8,6.4A3,3,0,0,0,1,10.68v9a3,3,0,0,0,3,3h9a1,1,0,0,0,0-2H4a1,1,0,0,1-1-1v-9a1,1,0,0,1,.38-.78l8-6.4a1,1,0,0,1,1.24,0l8,6.4a1,1,0,0,1,.38.78v5a1,1,0,1,0,2,0v-5A3,3,0,0,0,21.87,8.34Z"/><path class="cls-1" d="M15.85,16.05a5,5,0,1,0-1.39,1.44l4.28,3.61a1,1,0,0,0,1.4-.12A1,1,0,0,0,20,19.57Zm-6.19-.42a3,3,0,1,1,4.23-.26A3,3,0,0,1,9.66,15.63Z"/></g></svg>