<svg xmlns="http://www.w3.org/2000/svg" viewBox="0 0 24 24"><defs><style>.cls-1{fill:#0e1317;}</style></defs><g id="Layer-90" data-name="Layer"><g id="Vrstva_137" data-name="Vrstva 137"><path class="cls-1" d="M16.54,2.89A1.2,1.2,0,0,0,15,3L12.16,5.85a1.52,1.52,0,0,0-1.72.31L3.8,12.8a5,5,0,0,0,7.07,7.07l6.05-6.05a1.48,1.48,0,0,0,.28-1.69L21.31,8a1.2,1.2,0,0,0-.15-1.83ZM9.46,18.45a3,3,0,0,1-4.24-4.24l6.27-6.27,3.71,4.77Zm6.54-8L13.53,7.31l2.4-2.4,3.3,2.36Z"/><path class="cls-1" d="M5.92,14.92a2,2,0,1,0,2.83,0A2,2,0,0,0,5.92,14.92Z"/></g></g></svg>