<svg xmlns="http://www.w3.org/2000/svg" viewBox="0 0 24 24"><defs><style>.cls-1{fill:#0e1317;}</style></defs><g id="Layer-97" data-name="Layer"><g id="Vrstva_130" data-name="Vrstva 130"><path class="cls-1" d="M13,22.9a5.13,5.13,0,0,0,4-5.09v-3.5A1.31,1.31,0,0,0,15.69,13H13V6.36A1,1,0,0,0,12.93,6h1A1.12,1.12,0,0,0,15,4.88V4.15a3.09,3.09,0,0,0-2.44-3.1A3,3,0,0,0,9,4v.88A1.12,1.12,0,0,0,10.12,6h1a1,1,0,0,0-.07.36V13H8.31A1.31,1.31,0,0,0,7,14.31V18A5,5,0,0,0,13,22.9ZM12,3a1,1,0,0,1,1,1H11A1,1,0,0,1,12,3ZM9,15h6v3A3,3,0,0,1,11.44,21,3.09,3.09,0,0,1,9,17.85Z"/></g></g></svg>