<svg xmlns="http://www.w3.org/2000/svg" viewBox="0 0 24 24"><defs><style>.cls-1{fill:#0e1317;fill-rule:evenodd;}</style></defs><g id="Layer-277" data-name="Layer"><path class="cls-1" d="M17,2H11A3,3,0,0,0,8,5V6.1A5,5,0,0,0,4,11v.93A1.07,1.07,0,0,0,5.07,13h7.86A1.07,1.07,0,0,0,14,11.93V11a5,5,0,0,0-4-4.9V5a1,1,0,0,1,1-1h6a1,1,0,0,1,1,1V21a1,1,0,0,0,2,0V5A3,3,0,0,0,17,2Zm-5,9H6a3,3,0,0,1,6,0Z"/><path class="cls-1" d="M6,14a1,1,0,0,0-1,1v1a1,1,0,0,0,2,0V15A1,1,0,0,0,6,14Z"/><path class="cls-1" d="M12,14a1,1,0,0,0-1,1v1a1,1,0,0,0,2,0V15A1,1,0,0,0,12,14Z"/><path class="cls-1" d="M9,14a1,1,0,0,0-1,1v2a1,1,0,0,0,2,0V15A1,1,0,0,0,9,14Z"/></g></svg>