<svg xmlns="http://www.w3.org/2000/svg" viewBox="0 0 24 24"><g id="ic-mobile-signal"><path d="M6.3,21H3.7a1.2,1.2,0,0,1-1.2-1.2V13.2A1.2,1.2,0,0,1,3.7,12H6.3a1.2,1.2,0,0,1,1.2,1.2v6.6A1.2,1.2,0,0,1,6.3,21ZM4.5,19h1V14h-1Z"/><path d="M13.3,21H10.7a1.2,1.2,0,0,1-1.2-1.2V8.2A1.2,1.2,0,0,1,10.7,7h2.6a1.2,1.2,0,0,1,1.2,1.2V19.8A1.2,1.2,0,0,1,13.3,21Zm-1.8-2h1V9h-1Z"/><path d="M20.3,21H17.7a1.2,1.2,0,0,1-1.2-1.2V4.2A1.2,1.2,0,0,1,17.7,3h2.6a1.2,1.2,0,0,1,1.2,1.2V19.8A1.2,1.2,0,0,1,20.3,21Zm-1.8-2h1V5h-1Z"/></g></svg>