<svg xmlns="http://www.w3.org/2000/svg" viewBox="0 0 24 24"><defs><style>.cls-1{fill:#0e1317;fill-rule:evenodd;}</style></defs><g id="Layer-190" data-name="Layer"><g id="Vrstva_192" data-name="Vrstva 192"><path class="cls-1" d="M20,5H18a3,3,0,0,0-3,3V9H9V8A3,3,0,0,0,6,5H4A3,3,0,0,0,1,8v8a3,3,0,0,0,3,3H6a3,3,0,0,0,3-3V15h6v1a3,3,0,0,0,3,3h2a3,3,0,0,0,3-3V8A3,3,0,0,0,20,5ZM7,9v7a1,1,0,0,1-1,1H4a1,1,0,0,1-1-1V8A1,1,0,0,1,4,7H6A1,1,0,0,1,7,8Zm8,4H9V11h6Zm6,3a1,1,0,0,1-1,1H18a1,1,0,0,1-1-1V8a1,1,0,0,1,1-1h2a1,1,0,0,1,1,1Z"/></g></g></svg>