<svg xmlns="http://www.w3.org/2000/svg" viewBox="0 0 24 24"><defs><style>.cls-1{fill:#0e1317;fill-rule:evenodd;}</style></defs><g id="Layer-197" data-name="Layer"><path class="cls-1" d="M22,12a1,1,0,0,0-1-1H18.41l2.88-2.88a1,1,0,1,0-1.41-1.41L15.64,11s0,0,0,.05H13V8.36l.05,0,4.24-4.24a1,1,0,0,0-1.42-1.42L13,5.55V3a1,1,0,1,0-2,0V5.62L8.09,2.67A1,1,0,0,0,6.67,4.09l4.24,4.24.13.08V11H8.33s0,0,0-.05L4.05,6.71A1,1,0,1,0,2.64,8.12L5.51,11H3a1,1,0,0,0,0,2H5.59L2.64,16a1,1,0,1,0,1.41,1.41l4.24-4.24s.05-.08.08-.12H11v2.59l-.13.08L6.67,19.91a1,1,0,0,0,1.42,1.42L11,18.38V21a1,1,0,0,0,2,0V18.45l2.87,2.88a1,1,0,0,0,1.42-1.42l-4.24-4.24-.05,0V13h2.52a.32.32,0,0,0,.08.12l4.24,4.24A1,1,0,1,0,21.29,16L18.34,13H21A1,1,0,0,0,22,12Z"/></g></svg>