<svg xmlns="http://www.w3.org/2000/svg" viewBox="0 0 24 24"><defs><style>.cls-1{fill:#0e1317;fill-rule:evenodd;}</style></defs><g id="Layer-158" data-name="Layer"><g id="Vrstva_262" data-name="Vrstva 262"><path class="cls-1" d="M21.8,4H2.2A1.2,1.2,0,0,0,1,5.2V18.8A1.2,1.2,0,0,0,2.2,20H21.8A1.2,1.2,0,0,0,23,18.8V5.2A1.2,1.2,0,0,0,21.8,4ZM11,14.2a2,2,0,0,1,0-3.72Zm2-3.39a2,2,0,0,1,0,3.06ZM3,10H4v4H3Zm0,8V16H4.8A1.2,1.2,0,0,0,6,14.8V9.2A1.2,1.2,0,0,0,4.8,8H3V6h8V8.41a4,4,0,0,0,0,7.86V18Zm10,0V16.11a4,4,0,0,0,0-7.54V6h8V8H19.2A1.2,1.2,0,0,0,18,9.2v5.6A1.2,1.2,0,0,0,19.2,16H21v2Zm8-4H20V10h1Z"/></g></g></svg>