<svg xmlns="http://www.w3.org/2000/svg" viewBox="0 0 24 24"><defs><style>.cls-1{fill:#0e1317;fill-rule:evenodd;}</style></defs><g id="Layer-125" data-name="Layer"><g id="Vrstva_332" data-name="Vrstva 332"><path class="cls-1" d="M6.85,11.44A5.51,5.51,0,0,0,11.42,15v7a1,1,0,0,0,2,0V15a1.06,1.06,0,0,0,0-.19,5.51,5.51,0,0,0,3.77-3.37l.11-.29a6,6,0,0,0,0-4.3L16,3.7A4.27,4.27,0,0,0,8,3.7L6.78,6.85a6,6,0,0,0,0,4.3ZM8.64,7.58,9.89,4.43a2.27,2.27,0,0,1,4.22,0l1.25,3.15a4,4,0,0,1,0,2.86l-.11.3a3.51,3.51,0,0,1-6.56,0l-.11-.3A4,4,0,0,1,8.64,7.58Z"/></g></g></svg>