<svg xmlns="http://www.w3.org/2000/svg" viewBox="0 0 24 24"><defs><style>.cls-1{fill:#0e1317;fill-rule:evenodd;}</style></defs><g id="Layer-276" data-name="Layer"><path class="cls-1" d="M21.87,8.34l-8-6.4a3,3,0,0,0-3.74,0l-8,6.4A3,3,0,0,0,1,10.68v9a3,3,0,0,0,3,3H20a3,3,0,0,0,3-3v-9A3,3,0,0,0,21.87,8.34ZM4,20.72a1,1,0,0,1-1-1v-8H4v1a1,1,0,0,0,1,1H7v2a1,1,0,0,0,1,1h2v2a1,1,0,0,0,1,1h2v1Zm17-1a1,1,0,0,1-1,1H15v-1.9a1.1,1.1,0,0,0-1.1-1.1H12v-1.9a1.1,1.1,0,0,0-1.1-1.1H9v-1.9a1.1,1.1,0,0,0-1.1-1.1H6v-.9a1.1,1.1,0,0,0-1.1-1.1H3.6L11.38,3.5a1,1,0,0,1,1.24,0L20.4,9.72H13a1,1,0,0,0,0,2h8Z"/></g></svg>