<svg xmlns="http://www.w3.org/2000/svg" viewBox="0 0 24 24"><defs><style>.cls-1{fill:#0e1317;fill-rule:evenodd;}</style></defs><g id="Layer-167" data-name="Layer"><g id="Vrstva_238" data-name="Vrstva 238"><path class="cls-1" d="M16,10.5a6,6,0,1,0,6,6A6,6,0,0,0,16,10.5Zm0,10a4,4,0,1,1,4-4A4,4,0,0,1,16,20.5Z"/><path class="cls-1" d="M14,6.5a5,5,0,1,0-5,5A5,5,0,0,0,14,6.5Zm-5,3a3,3,0,1,1,3-3A3,3,0,0,1,9,9.5Z"/><path class="cls-1" d="M5.5,12.5A3.5,3.5,0,1,0,9,16,3.5,3.5,0,0,0,5.5,12.5Zm0,5A1.5,1.5,0,1,1,7,16,1.5,1.5,0,0,1,5.5,17.5Z"/></g></g></svg>