<svg xmlns="http://www.w3.org/2000/svg" viewBox="0 0 24 24"><defs><style>.cls-1{fill:#0e1317;}</style></defs><g id="Layer-162" data-name="Layer"><g id="Vrstva_248" data-name="Vrstva 248"><path class="cls-1" d="M12.91,23H4.05a3,3,0,0,1-3-3C1,14,1,8,1,2.05a1,1,0,0,1,1.4-1A1,1,0,0,1,3,2v18a1,1,0,0,0,.84,1H22a1,1,0,1,1,.09,2H12.91Z"/><path class="cls-1" d="M4.71,13.27c0-1.53,0-3.07,0-4.6A4.54,4.54,0,0,1,7.5,4.46a4.59,4.59,0,0,1,5.27.81,4.54,4.54,0,0,1,1.56,3.47c0,.89,0,1.78,0,2.67a5.5,5.5,0,0,0,4.46,5.47,8,8,0,0,0,1.1.1c.37,0,.73,0,1.1,0A1,1,0,0,1,21,19a15.16,15.16,0,0,1-2.13-.06,7.16,7.16,0,0,1-3.06-1.08,7.43,7.43,0,0,1-3.42-5.15,7.68,7.68,0,0,1-.09-1.17c0-.94,0-1.88,0-2.82a2.81,2.81,0,0,0-5.6-.28,2.55,2.55,0,0,0,0,.39v9.13a1,1,0,1,1-2,0V13.27Z"/></g></g></svg>