<svg xmlns="http://www.w3.org/2000/svg" viewBox="0 0 24 24"><defs><style>.cls-1{fill:#0e1317;fill-rule:evenodd;}</style></defs><g id="Layer-164" data-name="Layer"><g id="Vrstva_244" data-name="Vrstva 244"><path class="cls-1" d="M18.77,13.08,17.72,9.6a4,4,0,1,0-5.35-5.26L6.87,3.16A3,3,0,1,0,3.59,7l1.74,6.55a3,3,0,1,0,3.85,4.54l3.9.79a5,5,0,1,0,5.69-5.76ZM16,4a2,2,0,1,1-2,2A2,2,0,0,1,16,4ZM3,4A1,1,0,1,1,4,5,1,1,0,0,1,3,4ZM7,17a1,1,0,1,1,1-1A1,1,0,0,1,7,17Zm.28-4L5.55,6.56A3.06,3.06,0,0,0,6.76,5.18L12,6.32A4,4,0,0,0,15.75,10l1,3.22a5,5,0,0,0-3.55,3.62L10,16.18A1.1,1.1,0,0,0,10,16,3,3,0,0,0,7.28,13ZM18,21a3,3,0,1,1,3-3A3,3,0,0,1,18,21Z"/></g></g></svg>