<svg xmlns="http://www.w3.org/2000/svg" viewBox="0 0 24 24"><defs><style>.cls-1{fill:#0e1317;fill-rule:evenodd;}</style></defs><g id="Layer-165" data-name="Layer"><g id="Vrstva_243" data-name="Vrstva 243"><path class="cls-1" d="M22,11H16.63l.67-5.33A.76.76,0,0,1,18.05,5H21.5a1,1,0,0,0,0-2H18.27a3,3,0,0,0-3,2.63l-.56,4.49a1,1,0,0,1-1,.88H13V2a1,1,0,0,0-2,0v9H2a1,1,0,0,0,0,2H6.71L5.29,18.33a.89.89,0,0,1-.87.67H2a1,1,0,0,0,0,2H4.45a3,3,0,0,0,2.9-2.23l1.34-5a1,1,0,0,1,1-.74H11v9a1,1,0,0,0,2,0V13h9a1,1,0,0,0,0-2Z"/></g></g></svg>