<svg xmlns="http://www.w3.org/2000/svg" viewBox="0 0 24 24"><defs><style>.cls-1{fill:#0e1317;fill-rule:evenodd;}</style></defs><g id="Layer-166" data-name="Layer"><g id="Vrstva_241" data-name="Vrstva 241"><path class="cls-1" d="M18.33,5.42a1.18,1.18,0,0,0-.25-.25L12.7,1.26a1.19,1.19,0,0,0-1.27-.09L4.11,5.08a1.21,1.21,0,0,0-.55.59L1.12,11.53a1.2,1.2,0,0,0,0,.93l2.93,6.85a1.18,1.18,0,0,0,.63.63l6.84,2.93a1.18,1.18,0,0,0,1.05-.05L18,19.9a1.3,1.3,0,0,0,.43-.41l4.4-6.84a1.21,1.21,0,0,0-.05-1.37ZM16.81,18.24,12,20.88,5.77,18.23,3.1,12,5.3,6.71l6.63-3.54L16.8,6.71l4,5.33Z"/><path class="cls-1" d="M15.23,8.13,12.7,6.29a1.19,1.19,0,0,0-1.27-.08L7.82,8.13a1.11,1.11,0,0,0-.32.25L4.86,11.26a1.21,1.21,0,0,0-.23,1.26l1.9,4.75A1.22,1.22,0,0,0,7.65,18H12a1.19,1.19,0,0,0,.58-.15l2.54-1.39A1.2,1.2,0,0,0,15.62,15l-1-2.48,1.07-3A1.21,1.21,0,0,0,15.23,8.13ZM12.62,13l.87,2.1-1.73,1H8.19L6.68,12.24l2.2-2.41,3-1.62L13.57,9.4l-1,2.72A1.21,1.21,0,0,0,12.62,13Z"/></g></g></svg>