<svg xmlns="http://www.w3.org/2000/svg" viewBox="0 0 24 24"><defs><style>.cls-1{fill:#0e1317;}</style></defs><g id="Layer-88" data-name="Layer"><g id="Vrstva_139" data-name="Vrstva 139"><path class="cls-1" d="M19,3H5A3,3,0,0,0,2,6v6a3,3,0,0,0,3,3v3.5a2.51,2.51,0,0,0,3.12,2.43A2.59,2.59,0,0,0,10,18.38V15h4v3.5a2.51,2.51,0,0,0,3.12,2.43A2.59,2.59,0,0,0,19,18.38V15a3,3,0,0,0,3-3V6A3,3,0,0,0,19,3ZM9.54,13H6.7L9.9,5h2.84ZM4,6A1,1,0,0,1,5,5H7.74L4.58,12.9A1,1,0,0,1,4,12ZM8,18.5a.5.5,0,0,1-1,0V15H8ZM11.7,13l3.2-8h2.84l-3.2,8H11.7ZM17,18.5a.5.5,0,0,1-1,0V15h1ZM20,12a1,1,0,0,1-1,1H16.7l3.05-7.64A1,1,0,0,1,20,6Z"/></g></g></svg>