<svg xmlns="http://www.w3.org/2000/svg" viewBox="0 0 24 24"><defs><style>.cls-1{fill:#0e1317;fill-rule:evenodd;}</style></defs><g id="Layer-177" data-name="Layer"><g id="Vrstva_222" data-name="Vrstva 222"><path class="cls-1" d="M22,11H19.93A7.88,7.88,0,0,0,18.31,7.1L20,5.38A1,1,0,0,0,18.62,4L16.9,5.69a8,8,0,0,0-3.43-1.55.7.7,0,0,0,0-.14V2a1,1,0,0,0-2,0V4a0,0,0,0,0,0,0A7.92,7.92,0,0,0,7.1,5.69L5.38,4A1,1,0,0,0,4,5.38L5.69,7.1A7.88,7.88,0,0,0,4.07,11H2a1,1,0,0,0,0,2H4.07A7.88,7.88,0,0,0,5.69,16.9L4,18.62A1,1,0,0,0,5.38,20L7.1,18.31A7.92,7.92,0,0,0,11.51,20a0,0,0,0,0,0,0v2a1,1,0,0,0,2,0V20a.7.7,0,0,0,0-.14,8,8,0,0,0,3.43-1.55L18.62,20A1,1,0,0,0,20,18.62L18.31,16.9A7.88,7.88,0,0,0,19.93,13H22a1,1,0,0,0,0-2ZM12,18a6,6,0,1,1,6-6A6,6,0,0,1,12,18Z"/></g></g></svg>