<svg xmlns="http://www.w3.org/2000/svg" viewBox="0 0 24 24"><g id="ic-medicine-syringe"><path d="M22.25,7.49a1,1,0,0,1-.7-.29L17.3,3a1,1,0,0,1,0-1.41,1,1,0,0,1,1.42,0L23,5.78A1,1,0,0,1,23,7.2,1,1,0,0,1,22.25,7.49Z"/><path d="M17.3,8.2a1,1,0,0,1-.7-.3,1,1,0,0,1,0-1.41l2.82-2.83a1,1,0,1,1,1.42,1.42L18,7.9A1,1,0,0,1,17.3,8.2Z"/><path d="M11.65,17.68a2,2,0,0,1-1.42-.58L7.4,14.27a2,2,0,0,1,0-2.83l6.37-6.36a2,2,0,0,1,1.41-.59h0a2,2,0,0,1,1.42.59L19.42,7.9a2,2,0,0,1,0,2.83L13.06,17.1A2,2,0,0,1,11.65,17.68ZM15.18,6.49,8.82,12.85l2.83,2.83L18,9.32Z"/><path d="M3.87,21.63a1,1,0,0,1-.71-.29,1,1,0,0,1,0-1.42l5.66-5.65a1,1,0,0,1,1.41,1.41L4.58,21.34A1,1,0,0,1,3.87,21.63Z"/><path d="M15.46,14H8a1,1,0,0,1,0-2h7.46a1,1,0,0,1,0,2Z"/></g></svg>