<svg xmlns="http://www.w3.org/2000/svg" viewBox="0 0 24 24"><defs><style>.cls-1{fill:#0e1317;fill-rule:evenodd;}</style></defs><g id="Layer-184" data-name="Layer"><g id="Vrstva_207" data-name="Vrstva 207"><path class="cls-1" d="M20.44,1.61,16.55,1a3,3,0,0,0-3.39,2.41L13,4.36a1,1,0,0,1-2,0l-.18-.92A3,3,0,0,0,7.45,1l-3.89.58A3,3,0,0,0,1,4.58V7.94A2.51,2.51,0,0,0,3.44,10.5a.56.56,0,0,1,.56.56V20a3,3,0,0,0,3,3h9.1A2.9,2.9,0,0,0,19,20.1V11.31a.83.83,0,0,1,.88-.81A3,3,0,0,0,23,7.63v-3A3,3,0,0,0,20.44,1.61Zm.56,6a.9.9,0,0,1-.88.92A3,3,0,0,0,17,11.38V20a1,1,0,0,1-1,1H7a1,1,0,0,1-1-1V11.06A2.51,2.51,0,0,0,3.56,8.5.56.56,0,0,1,3,7.94V4.58a1,1,0,0,1,.85-1L7.75,3a1,1,0,0,1,1.13.8l.17.93a3,3,0,0,0,5.9,0l.17-.93A1,1,0,0,1,16.25,3l3.9.58a1,1,0,0,1,.85,1Z"/></g></g></svg>