<svg xmlns="http://www.w3.org/2000/svg" viewBox="0 0 24 24"><defs><style>.cls-1{fill:#0e1317;fill-rule:evenodd;}</style></defs><g id="Layer-23" data-name="Layer"><g id="Vrstva_97" data-name="Vrstva 97"><path class="cls-1" d="M3.5,10.56a1,1,0,0,0-1,1v8a1,1,0,0,0,2,0v-8A1,1,0,0,0,3.5,10.56Z"/><path class="cls-1" d="M18.5,9H13.22L11.9,5.05A3,3,0,0,0,9.06,3H8.5a3,3,0,0,0-3,3V18a3,3,0,0,0,3,3h7.33a3,3,0,0,0,1.8-.6l2.67-2A3,3,0,0,0,21.5,16V12A3,3,0,0,0,18.5,9Zm1,7a1,1,0,0,1-.4.8l-2.67,2a1,1,0,0,1-.6.2H8.5a1,1,0,0,1-1-1V6a1,1,0,0,1,1-1h.56a1,1,0,0,1,.95.68l1.5,4.5a1.19,1.19,0,0,0,1.13.82H18.5a1,1,0,0,1,1,1Z"/></g></g></svg>