<svg xmlns="http://www.w3.org/2000/svg" viewBox="0 0 24 24"><defs><style>.cls-1{fill:#0e1317;fill-rule:evenodd;}</style></defs><g id="Layer-256" data-name="Layer"><path class="cls-1" d="M18,8A6,6,0,0,1,6,8V3A1,1,0,0,1,8,3V8a4,4,0,0,0,8,0V3a1,1,0,0,1,2,0Z"/><path class="cls-1" d="M12,23a1,1,0,0,1-1-1V13a1,1,0,0,1,2,0v9A1,1,0,0,1,12,23Z"/><path class="cls-1" d="M10.71,5.71a1,1,0,0,1-1.42,0L7,3.41,4.71,5.71A1,1,0,0,1,3.29,4.29L5.94,1.65a1.49,1.49,0,0,1,2.12,0l2.65,2.64A1,1,0,0,1,10.71,5.71Z"/><path class="cls-1" d="M20.71,5.71a1,1,0,0,1-1.42,0L17,3.41l-2.29,2.3a1,1,0,0,1-1.42-1.42l2.65-2.64a1.49,1.49,0,0,1,2.12,0l2.65,2.64A1,1,0,0,1,20.71,5.71Z"/></g></svg>