<svg xmlns="http://www.w3.org/2000/svg" viewBox="0 0 24 24"><defs><style>.cls-1{fill:#0e1317;fill-rule:evenodd;}</style></defs><g id="Layer-54" data-name="Layer"><g id="Vrstva_14" data-name="Vrstva 14"><path class="cls-1" d="M12,22.94a8.14,8.14,0,0,0,8-8.27,9.71,9.71,0,0,0-1-3.73c-.21-.46-.44-.93-.69-1.4L17,11.44c.05.11.1.21.14.32A7.78,7.78,0,0,1,18,14.67a6.14,6.14,0,0,1-6,6.27,6.14,6.14,0,0,1-1.29-.14L9.54,22.54A7.69,7.69,0,0,0,12,22.94ZM13.6,5.78,14.8,4c-.86-1.19-1.56-2.1-1.86-2.48a1.19,1.19,0,0,0-1.88,0C10.54,2.18,8.81,4.42,7.2,7a33,33,0,0,0-2.19,4,9.71,9.71,0,0,0-1,3.73A8.49,8.49,0,0,0,5,18.6l1.33-2a6.57,6.57,0,0,1-.29-2,7.78,7.78,0,0,1,.84-2.91A30,30,0,0,1,8.89,8.05C10,6.24,11.24,4.58,12,3.57,12.43,4.14,13,4.9,13.6,5.78Z"/><path class="cls-1" d="M19.23,2.8a1,1,0,0,1,.27,1.39L7.2,22.43a1,1,0,0,1-1.39.27,1,1,0,0,1-.27-1.39L17.84,3.07A1,1,0,0,1,19.23,2.8Z"/></g></g></svg>