<svg xmlns="http://www.w3.org/2000/svg" viewBox="0 0 24 24"><defs><style>.cls-1{fill:#0e1317;fill-rule:evenodd;}</style></defs><g id="Layer-143" data-name="Layer"><g id="Vrstva_293" data-name="Vrstva 293"><path class="cls-1" d="M14.59,8.25l-2.54,2.54L9.41,8.15a.9.9,0,0,0-1.23.19A.9.9,0,0,0,8,9.56l2.64,2.65L8.4,14.44a.89.89,0,0,0,.2,1.22.89.89,0,0,0,1.22.19l2.23-2.23,2.13,2.13a.9.9,0,0,0,1.22-.19.9.9,0,0,0,.19-1.23l-2.13-2.12L16,9.66a.9.9,0,0,0-.19-1.22A.9.9,0,0,0,14.59,8.25Z"/><path class="cls-1" d="M22.49,8.25c0-1.46-.17-2.77-.22-3.26a1.2,1.2,0,0,0-1.36-1.07,16.82,16.82,0,0,1-1.77.16A7.68,7.68,0,0,1,17,3.92a7.67,7.67,0,0,1-2.3-1.26,17.67,17.67,0,0,1-1.64-1.37,1.2,1.2,0,0,0-1.65,0A19.89,19.89,0,0,1,9.79,2.65,8.16,8.16,0,0,1,7.47,3.92a7.77,7.77,0,0,1-2.4.19,18.69,18.69,0,0,1-2-.18A1.2,1.2,0,0,0,1.73,5c-.05.5-.18,1.81-.22,3.28a17.64,17.64,0,0,0,.27,4.36,13.55,13.55,0,0,0,4.05,6.15,34.31,34.31,0,0,0,4.85,3.81,2.81,2.81,0,0,0,3.15,0,35.72,35.72,0,0,0,4.58-3.86,13.82,13.82,0,0,0,3.81-6.06A17.57,17.57,0,0,0,22.49,8.25Zm-2.21,3.9A12.07,12.07,0,0,1,17,17.27a33,33,0,0,1-4.32,3.62.78.78,0,0,1-.89,0,32.24,32.24,0,0,1-4.57-3.59,11.68,11.68,0,0,1-3.49-5.17A17,17,0,0,1,3.5,8.32c0-.88.09-1.7.15-2.31.38,0,.85.08,1.35.1a9.79,9.79,0,0,0,3-.27A10,10,0,0,0,11,4.26c.5-.37.94-.73,1.28-1,.34.29.78.66,1.28,1a9.68,9.68,0,0,0,3,1.58,9.7,9.7,0,0,0,2.72.23L20.36,6c.05.61.11,1.44.14,2.32A17,17,0,0,1,20.28,12.15Z"/></g></g></svg>