<svg xmlns="http://www.w3.org/2000/svg" viewBox="0 0 24 24"><defs><style>.cls-1{fill:#0e1317;}</style></defs><g id="Layer-7" data-name="Layer"><g id="Vrstva_108" data-name="Vrstva 108"><path class="cls-1" d="M22.85,11.48h0v0l0-.06-.14-.21c-.13-.18-.31-.43-.54-.73a16.42,16.42,0,0,0-2.07-2.2A12.22,12.22,0,0,0,12,5,12.22,12.22,0,0,0,4,8.25a16.42,16.42,0,0,0-2.07,2.2c-.23.3-.41.55-.54.73l-.14.21,0,.06h0L.83,12l.32.54h0v0l0,.06.14.21c.13.18.31.43.54.73A16.42,16.42,0,0,0,4,15.75,12.22,12.22,0,0,0,12,19a12.22,12.22,0,0,0,8.05-3.25,16.42,16.42,0,0,0,2.07-2.2c.23-.3.41-.55.54-.73l.14-.21,0-.06v0h0l.32-.52Zm-2.31.84a14.36,14.36,0,0,1-1.81,1.93A10.2,10.2,0,0,1,12,17a10.2,10.2,0,0,1-6.73-2.75,15.23,15.23,0,0,1-1.82-1.93L3.21,12l.24-.32A15.23,15.23,0,0,1,5.27,9.75,10.2,10.2,0,0,1,12,7a10.2,10.2,0,0,1,6.73,2.75,14.36,14.36,0,0,1,1.81,1.93c.1.12.18.22.25.32S20.64,12.2,20.54,12.32Z"/><circle class="cls-1" cx="12" cy="12" r="3"/></g></g></svg>