<svg xmlns="http://www.w3.org/2000/svg" viewBox="0 0 24 24"><defs><style>.cls-1{fill:#0e1317;fill-rule:evenodd;}</style></defs><g id="Layer-181" data-name="Layer"><g id="Vrstva_212" data-name="Vrstva 212"><path class="cls-1" d="M5.25,16.71H9.48a1,1,0,0,1,.61.21l3.23,2.49a1.2,1.2,0,0,0,1.93-1V5.55a1.2,1.2,0,0,0-2.07-.83L10.66,7.4a1,1,0,0,1-.73.31H5.25a3,3,0,0,0-3,3v3A3,3,0,0,0,5.25,16.71Zm-1-6a1,1,0,0,1,1-1H9.94a3,3,0,0,0,2.18-.93l1.13-1.19v9.22l-1.94-1.48a3,3,0,0,0-1.82-.62H5.25a1,1,0,0,1-1-1Z"/><path class="cls-1" d="M16.74,15.87a1.23,1.23,0,0,0-1,1.13.88.88,0,0,0,1,.91,6,6,0,0,0,0-11.83.88.88,0,0,0-1,.92,1.23,1.23,0,0,0,1,1.12,4,4,0,0,1,0,7.75Z"/></g></g></svg>