<svg xmlns="http://www.w3.org/2000/svg" viewBox="0 0 24 24"><defs><style>.cls-1{fill:#0e1317;fill-rule:evenodd;}</style></defs><g id="Layer-170" data-name="Layer"><g id="Vrstva_233" data-name="Vrstva 233"><path class="cls-1" d="M5,16.71H9.23a1,1,0,0,1,.61.21l3.23,2.49a1.2,1.2,0,0,0,1.93-1V5.55a1.2,1.2,0,0,0-2.07-.83L10.41,7.4a1,1,0,0,1-.73.31H5a3,3,0,0,0-3,3v3A3,3,0,0,0,5,16.71Zm-1-6a1,1,0,0,1,1-1H9.69a3,3,0,0,0,2.18-.93L13,7.59v9.22l-1.94-1.48a3,3,0,0,0-1.82-.62H5a1,1,0,0,1-1-1Z"/><path class="cls-1" d="M17,12.71h1V14a1,1,0,0,0,2,0V12.71h1a1,1,0,0,0,0-2H20V10a1,1,0,0,0-2,0v.71H17a1,1,0,0,0,0,2Z"/></g></g></svg>