<svg xmlns="http://www.w3.org/2000/svg" viewBox="0 0 24 24"><defs><style>.cls-1{fill:#0e1317;}</style></defs><g id="Layer-70" data-name="Layer"><g id="Vrstva_157" data-name="Vrstva 157"><path class="cls-1" d="M19,9H16.9A5,5,0,0,0,7.1,9H5a3,3,0,0,0-3,3v4a3,3,0,0,0,3,3H19a3,3,0,0,0,3-3V12A3,3,0,0,0,19,9ZM12,7a3,3,0,0,1,2.82,2H9.18A3,3,0,0,1,12,7Zm8,9a1,1,0,0,1-1,1H5a1,1,0,0,1-1-1V12a1,1,0,0,1,1-1H19a1,1,0,0,1,1,1Z"/><path class="cls-1" d="M10,13H7a1,1,0,0,0,0,2h3a1,1,0,0,0,0-2Z"/><path class="cls-1" d="M17,13H14a1,1,0,0,0,0,2h3a1,1,0,0,0,0-2Z"/></g></g></svg>