<svg xmlns="http://www.w3.org/2000/svg" viewBox="0 0 24 24"><defs><style>.cls-1{fill:#0e1317;fill-rule:evenodd;}</style></defs><g id="Layer-185" data-name="Layer"><g id="Vrstva_206" data-name="Vrstva 206"><path class="cls-1" d="M20,4.79H19V4.21a3,3,0,0,0-3.82-2.88L3.73,4.6a1,1,0,0,0-.44.28A3,3,0,0,0,1,7.79v12a3,3,0,0,0,3,3H20a3,3,0,0,0,3-3v-12A3,3,0,0,0,20,4.79ZM15.73,3.25a1,1,0,0,1,1.27,1v.58H10.36ZM21,14.79H18a1,1,0,0,1,0-2h3Zm0-4H18.15a3.09,3.09,0,0,0-3.1,2.44A3,3,0,0,0,18,16.79h3v3a1,1,0,0,1-1,1H4a1,1,0,0,1-1-1v-12a1,1,0,0,1,1-1H20a1,1,0,0,1,1,1Z"/></g></g></svg>