<svg xmlns="http://www.w3.org/2000/svg" viewBox="0 0 24 24"><defs><style>.cls-1{fill:#0e1317;fill-rule:evenodd;}</style></defs><g id="Layer-222" data-name="Layer"><path class="cls-1" d="M17,1H7A3,3,0,0,0,4,4V20a3,3,0,0,0,3,3H17a3,3,0,0,0,3-3V4A3,3,0,0,0,17,1ZM7,21a1,1,0,0,1-1-1V4A1,1,0,0,1,7,3h4V21Zm11-1a1,1,0,0,1-1,1H13V3h4a1,1,0,0,1,1,1Z"/><path class="cls-1" d="M9,12a1,1,0,0,0-1,1v1a1,1,0,0,0,2,0V13A1,1,0,0,0,9,12Z"/><path class="cls-1" d="M15,12a1,1,0,0,0-1,1v1a1,1,0,0,0,2,0V13A1,1,0,0,0,15,12Z"/></g></svg>