<svg xmlns="http://www.w3.org/2000/svg" viewBox="0 0 24 24"><defs><style>.cls-1{fill:#0e1317;fill-rule:evenodd;}</style></defs><g id="Layer-269" data-name="Layer"><path class="cls-1" d="M18,1H6A3,3,0,0,0,3,4V20a3,3,0,0,0,3,3H18a3,3,0,0,0,3-3V4A3,3,0,0,0,18,1ZM5,4A1,1,0,0,1,6,3H18a1,1,0,0,1,1,1V7H5ZM19,20a1,1,0,0,1-1,1H6a1,1,0,0,1-1-1V9H19Z"/><path class="cls-1" d="M11,4H7A1,1,0,0,0,7,6h4a1,1,0,0,0,0-2Z"/><path class="cls-1" d="M17,4H15a1,1,0,0,0,0,2h2a1,1,0,0,0,0-2Z"/><path class="cls-1" d="M12,20a5,5,0,1,0-5-5A5,5,0,0,0,12,20Zm0-8a3,3,0,1,1-3,3A3,3,0,0,1,12,12Z"/></g></svg>