<svg xmlns="http://www.w3.org/2000/svg" viewBox="0 0 24 24"><defs><style>.cls-1{fill:#0e1317;}</style></defs><g id="Layer-73" data-name="Layer"><g id="Vrstva_154" data-name="Vrstva 154"><path class="cls-1" d="M19,8a3,3,0,0,0-2-2.82V4a3,3,0,0,0-3-3H10A3,3,0,0,0,7,4V5.18A3,3,0,0,0,5,8v8a3,3,0,0,0,2,2.82V20a3,3,0,0,0,3,3h4a3,3,0,0,0,3-3V18.82A3,3,0,0,0,19,16V12a1,1,0,0,0,1-1V9A1,1,0,0,0,19,8ZM10,3h4a1,1,0,0,1,1,1V5H9V4A1,1,0,0,1,10,3Zm4,18H10a1,1,0,0,1-1-1V19h6v1A1,1,0,0,1,14,21Zm3-5a1,1,0,0,1-1,1H8a1,1,0,0,1-1-1V8A1,1,0,0,1,8,7h8a1,1,0,0,1,1,1Z"/></g></g></svg>