<svg xmlns="http://www.w3.org/2000/svg" viewBox="0 0 24 24"><defs><style>.cls-1{fill:#0e1317;fill-rule:evenodd;}</style></defs><g id="Layer-274" data-name="Layer"><path class="cls-1" d="M19,8.5H17.22A3,3,0,0,0,15,7.5v-2h2a1,1,0,0,0,0-2H11a1,1,0,0,0,0,2h2v2a3,3,0,0,0-2.22,1H6a3,3,0,0,0-3,3v3a2,2,0,0,0,2,2H6a2,2,0,0,0,2-2v-.73h2.29A3,3,0,0,0,13,15.5h2a3,3,0,0,0,2.22-1H19a2,2,0,0,0,2-2v-2A2,2,0,0,0,19,8.5ZM7.5,11.77A1.5,1.5,0,0,0,6,13.27V14.5H5v-3a1,1,0,0,1,1-1h4v1.27ZM15,13.5H13a1,1,0,0,1-1-1v-2a1,1,0,0,1,1-1h2a1,1,0,0,1,1,1v2A1,1,0,0,1,15,13.5Zm4-1H18v-2h1Z"/><path class="cls-1" d="M6,17.5a1,1,0,0,0-1,1v1a1,1,0,0,0,2,0v-1A1,1,0,0,0,6,17.5Z"/></g></svg>