<svg xmlns="http://www.w3.org/2000/svg" viewBox="0 0 24 24"><defs><style>.cls-1,.cls-2{fill:#0e1317;}.cls-1{fill-rule:evenodd;}</style></defs><g id="Layer-108" data-name="Layer"><g id="Vrstva_11" data-name="Vrstva 11"><path class="cls-1" d="M12,3.11a9,9,0,1,0,8.17,5.22A1,1,0,0,1,22,7.49a11,11,0,1,1-2.93-3.82,1,1,0,0,1,.12,1.41,1,1,0,0,1-1.4.12A9,9,0,0,0,12,3.11Z"/><path class="cls-1" d="M12.5,15.24a3,3,0,0,0,3,0,1,1,0,0,1,1,1.73,5,5,0,0,1-5,0,3,3,0,0,0-3,0,1,1,0,0,1-1-1.74,5.06,5.06,0,0,1,5,0Z"/><path class="cls-2" d="M15,12.11a1,1,0,0,1-1-1v-2a1,1,0,0,1,1-1h0a1,1,0,0,1,1,1v2a1,1,0,0,1-1,1Z"/><path class="cls-2" d="M9,12.11a1,1,0,0,1-1-1v-2a1,1,0,0,1,1-1H9a1,1,0,0,1,1,1v2a1,1,0,0,1-1,1Z"/><path class="cls-1" d="M20.25,5,18.48,6.36a.9.9,0,1,0,1.44.84ZM21,1.89a1,1,0,0,1,1.62.94L21.9,7.5a2.9,2.9,0,1,1-4.65-2.71Z"/></g></g></svg>