<svg xmlns="http://www.w3.org/2000/svg" viewBox="0 0 24 24"><defs><style>.cls-1,.cls-2{fill:#0e1317;}.cls-1{fill-rule:evenodd;}</style></defs><g id="Layer-111" data-name="Layer"><g id="Vrstva_9" data-name="Vrstva 9"><path class="cls-1" d="M12.39,2.64a9,9,0,1,0,8.18,5.22A1,1,0,1,1,22.38,7,11,11,0,1,1,19.45,3.2a1,1,0,0,1-1.28,1.54A9,9,0,0,0,12.39,2.64Z"/><path class="cls-1" d="M20.64,4.52,18.88,5.9a.89.89,0,1,0,1.43.83Zm.72-3.1a1,1,0,0,1,1.62,1L22.29,7a2.89,2.89,0,1,1-4.64-2.71Z"/><path class="cls-1" d="M16.39,16a1,1,0,0,1-1,1h-6a1,1,0,0,1,0-2h6A1,1,0,0,1,16.39,16Z"/><path class="cls-2" d="M15,11.64a1,1,0,0,1-1-1v-2a1,1,0,0,1,1-1h0a1,1,0,0,1,1,1v2a1,1,0,0,1-1,1Z"/><path class="cls-2" d="M9,11.64a1,1,0,0,1-1-1v-2a1,1,0,0,1,1-1H9a1,1,0,0,1,1,1v2a1,1,0,0,1-1,1Z"/></g></g></svg>