<svg xmlns="http://www.w3.org/2000/svg" viewBox="0 0 24 24"><defs><style>.cls-1{fill:#0e1317;fill-rule:evenodd;}</style></defs><g id="Layer-193" data-name="Layer"><g id="Vrstva_182" data-name="Vrstva 182"><path class="cls-1" d="M2.8,9H13.2a.5.5,0,0,0,.13,0,3,3,0,1,0-3.15-2H2.8A.92.92,0,0,0,2,8,.92.92,0,0,0,2.8,9ZM13,5a1,1,0,1,1-1,1A1,1,0,0,1,13,5Z"/><path class="cls-1" d="M16,15H5a1,1,0,0,0,0,2h8.18A3,3,0,1,0,16,15Zm0,4a1,1,0,1,1,1-1A1,1,0,0,1,16,19Z"/><path class="cls-1" d="M20,7a3,3,0,0,0-2.82,4H2a1,1,0,0,0,0,2H20a3,3,0,0,0,0-6Zm0,4a1,1,0,1,1,1-1A1,1,0,0,1,20,11Z"/></g></g></svg>