<svg xmlns="http://www.w3.org/2000/svg" viewBox="0 0 24 24"><defs><style>.cls-1{fill:#0e1317;fill-rule:evenodd;}</style></defs><g id="Layer-192" data-name="Layer"><g id="Vrstva_185" data-name="Vrstva 185"><path class="cls-1" d="M4.39,19A1,1,0,0,0,3,19.32l-.73,1.21a1,1,0,0,0,.33,1.38A1,1,0,0,0,4,21.57l.73-1.21A1,1,0,0,0,4.39,19Z"/><path class="cls-1" d="M8.39,19A1,1,0,0,0,7,19.32l-.73,1.21a1,1,0,0,0,.33,1.38A1,1,0,0,0,8,21.57l.73-1.21A1,1,0,0,0,8.39,19Z"/><path class="cls-1" d="M12.39,19a1,1,0,0,0-1.38.33l-.73,1.21a1,1,0,0,0,.33,1.38A1,1,0,0,0,12,21.57l.73-1.21A1,1,0,0,0,12.39,19Z"/><path class="cls-1" d="M18.12,6.05A6.92,6.92,0,0,0,12,2a6.92,6.92,0,0,0-6.12,4.1A6,6,0,0,0,7,18a5.91,5.91,0,0,0,2.48-.54,6.08,6.08,0,0,0,3.89.38A.83.83,0,0,0,14,17a1.21,1.21,0,0,0-1.43-1.05A5.46,5.46,0,0,1,12,16,4.29,4.29,0,0,1,10,15.42l-.49-.27L9,15.43A4,4,0,1,1,6.65,8l.62,0,.23-.57A5,5,0,0,1,12,4a5,5,0,0,1,4.5,3.39l.23.57.62,0A4,4,0,0,1,21,12a3.08,3.08,0,0,1,0,.53A1.25,1.25,0,0,0,22,14a.83.83,0,0,0,.82-.61A6.37,6.37,0,0,0,23,12,6,6,0,0,0,18.12,6.05Z"/><path class="cls-1" d="M19.61,15.65h-1.8l2-3.23a1,1,0,1,0-1.7-1.06l-2.8,4.45a1.2,1.2,0,0,0,1,1.84h1.71l-1.89,2.66a1,1,0,1,0,1.64,1.16l2.77-3.93A1.19,1.19,0,0,0,19.61,15.65Z"/></g></g></svg>