<svg xmlns="http://www.w3.org/2000/svg" viewBox="0 0 24 24"><defs><style>.cls-1{fill:#0e1317;}</style></defs><g id="Layer-156" data-name="Layer"><path class="cls-1" d="M5.94,8.87l-.3-.51L4,5.65A3,3,0,0,1,6.56,1.09c2.86,0,5.71,0,8.57,0a3,3,0,0,1,3,2.5,2.91,2.91,0,0,1-.51,2.23L15.71,8.5a.21.21,0,0,0,0,.06A7.91,7.91,0,0,1,19,15.21a7.66,7.66,0,0,1-2.45,5.62,8,8,0,0,1-11.17-.09A7.68,7.68,0,0,1,3,14.68,7.87,7.87,0,0,1,5.94,8.87ZM5,15.07a6,6,0,1,0,6-6A6,6,0,0,0,5,15.07ZM7.64,7.81h0a8,8,0,0,1,6.11-.22c.09,0,.13,0,.17-.06l2-2.83a1,1,0,0,0-.84-1.61H6.58a1,1,0,0,0-.63.2A1,1,0,0,0,5.7,4.61l.94,1.55C7,6.71,7.3,7.26,7.64,7.81Z"/><path class="cls-1" d="M10.41,14.61a4.59,4.59,0,0,1-.45.14,1,1,0,0,1-1-.54,1,1,0,0,1,.17-1.14c.48-.48,1-1,1.45-1.44a1.33,1.33,0,0,1,.75-.41,1,1,0,0,1,1.1.89c0,.07,0,.13,0,.2v5.8A1,1,0,0,1,12,19a1,1,0,0,1-1.63-.76c0-1.17,0-2.33,0-3.49Z"/></g></svg>