<svg xmlns="http://www.w3.org/2000/svg" viewBox="0 0 24 24"><defs><style>.cls-1{fill:#0e1317;fill-rule:evenodd;}</style></defs><g id="Layer-189" data-name="Layer"><g id="Vrstva_193" data-name="Vrstva 193"><path class="cls-1" d="M14.8,5H9.2A1.2,1.2,0,0,0,8,6.2V10H3.2A1.2,1.2,0,0,0,2,11.2v6.6A1.2,1.2,0,0,0,3.2,19H8.8A1.42,1.42,0,0,0,9,19a1.42,1.42,0,0,0,.2,0h5.6a1.42,1.42,0,0,0,.2,0,1.42,1.42,0,0,0,.2,0h5.6A1.2,1.2,0,0,0,22,17.8V13.2A1.2,1.2,0,0,0,20.8,12H16V6.2A1.2,1.2,0,0,0,14.8,5ZM8,17H4V12H8Zm6-3.8V17H10V7h4Zm6,.8v3H16V14Z"/></g></g></svg>