<svg xmlns="http://www.w3.org/2000/svg" viewBox="0 0 24 24"><defs><style>.cls-1{fill:#0e1317;}</style></defs><g id="Layer-168" data-name="Layer"><g id="Vrstva_237" data-name="Vrstva 237"><path class="cls-1" d="M13,11.49h.15c1,0,2,0,2.95,0A3,3,0,0,1,19,14a7,7,0,0,1,0,.8V15c.34,0,.66,0,1,0a4.49,4.49,0,0,1,.83.11A3,3,0,0,1,23,17.6a6.69,6.69,0,0,1-.07,2.14A3,3,0,0,1,20,22H16A3,3,0,0,1,13,19.37a6.47,6.47,0,0,1,0-2.06A3,3,0,0,1,15.67,15c.39,0,.78,0,1.18,0H17a1.73,1.73,0,0,0-.18-1.08,1,1,0,0,0-.8-.42H8a1,1,0,0,0-1,.93c0,.18,0,.37,0,.57h.13c.4,0,.8,0,1.19,0a3,3,0,0,1,2.62,2.41,3.6,3.6,0,0,1,.05.66,11.28,11.28,0,0,1,0,1.3,3,3,0,0,1-2.36,2.53A4.62,4.62,0,0,1,8,22H4.07a3,3,0,0,1-2.68-1.52A2.88,2.88,0,0,1,1,19c0-.38,0-.75,0-1.12A3,3,0,0,1,3.67,15c.4,0,.8,0,1.2,0H5c0-.27,0-.52,0-.77a3,3,0,0,1,2.42-2.67,3.39,3.39,0,0,1,.64-.06H11s0-.08,0-.11V10a.12.12,0,0,0-.09-.13A3.87,3.87,0,0,1,8.05,6.6,3.77,3.77,0,0,1,9,3.31,3.9,3.9,0,0,1,12.39,2a4,4,0,0,1,3.55,3.29,4,4,0,0,1-2,4.16,8.41,8.41,0,0,1-.87.37c-.05,0-.09,0-.09.1v1.48S13,11.46,13,11.49ZM6,20H8a1,1,0,0,0,1-1V18a1,1,0,0,0-1-1H4a1,1,0,0,0-1,1v.92A1,1,0,0,0,4.07,20Zm12,0h0c.69,0,1.37,0,2.06,0A1,1,0,0,0,21,19V18a1,1,0,0,0-1-1H16a1,1,0,0,0-1,.82,3,3,0,0,0,0,.42v.71A1,1,0,0,0,16,20ZM14,6a2,2,0,1,0-2,2A2,2,0,0,0,14,6Z"/></g></g></svg>