<svg xmlns="http://www.w3.org/2000/svg" viewBox="0 0 24 24"><defs><style>.cls-1{fill:#0e1317;fill-rule:evenodd;}</style></defs><g id="Layer-188" data-name="Layer"><g id="Vrstva_194" data-name="Vrstva 194"><path class="cls-1" d="M4.09,22.17a1,1,0,0,0,1-1v-18a1,1,0,0,0-2,0v18A1,1,0,0,0,4.09,22.17Z"/><path class="cls-1" d="M19.71,1.83H8.29A1.2,1.2,0,0,0,7.09,3v8.6a1.2,1.2,0,0,0,1.2,1.2H19.71a1.2,1.2,0,0,0,1-1.87L18.29,7.33,20.71,3.7A1.2,1.2,0,0,0,19.71,1.83ZM16.33,8l1.89,2.83H9.09v-7h9.13L16.33,6.66A1.21,1.21,0,0,0,16.33,8Z"/></g></g></svg>